<svg id="SvgjsSvg1001" width="288" height="288" xmlns="http://www.w3.org/2000/svg" version="1.1" xmlns:xlink="http://www.w3.org/1999/xlink" xmlns:svgjs="http://svgjs.com/svgjs"><defs id="SvgjsDefs1002"></defs><g id="SvgjsG1008"><svg xmlns="http://www.w3.org/2000/svg" viewBox="0 0 1545 1052" width="288" height="288"><g fill="none" fill-rule="nonzero" transform="translate(25 20)"><g fill="#e8e8e8" class="colorE8E8E8 svgShape"><path d="M102.4,754.1 C170.4,720.4 248.6,733.8 320.1,746.5 C358.2,753.3 396.2,759.6 434.8,762.8 C476.1,766.3 517.6,767 559,765 C639.1,761 717.8,745.2 796.8,732.1 C875.8,719.1 956.4,708.9 1036.4,718.4 C1114.3,727.7 1190.3,760.6 1269.7,754 C1278.6,753.3 1287.4,752 1296.2,750.2 C1298.1,749.8 1297.3,746.9 1295.4,747.3 C1215.5,763.5 1137,731.5 1059.1,718.6 C981.1,705.7 901.8,712.8 824.2,724.7 C743.6,737 663.7,754.4 582.3,760.5 C500.2,766.6 418.5,760.8 337.5,746.5 C268.2,734.2 193.4,718 124.6,741.5 C116.5,744.3 108.6,747.6 100.9,751.4 C99.2,752.4 100.7,755 102.4,754.1 Z" fill="#000000" class="color000 svgShape"></path><path d="M1043.1,885.8 C1039.4,878 1018.2,827.6 1037.5,828.8 C1038.6,828.9 1039.1,827.8 1038.9,826.9 C1036.4,811.3 1036.7,795.3 1039.9,779.7 C1041.4,772.5 1043.5,765.5 1046.2,758.7 C1048.6,752.6 1054.3,735.3 1063.5,743.4 C1069.1,748.4 1068.5,759.2 1069.1,766 C1069.7,774 1070,782 1070,790.1 C1069.9,806.3 1068.5,822.5 1065.8,838.5 C1064.3,847 1062.5,855.5 1060.3,863.8 C1059.1,868.3 1057.8,872.7 1056.5,877.1 C1055.2,881.1 1054.2,887.2 1049.6,888.7 C1047.8,889.3 1048.6,892.2 1050.4,891.6 C1056.8,889.4 1058.2,881.8 1059.9,876.1 C1062.8,866.7 1065.2,857.1 1067.2,847.4 C1071,828.2 1073,808.6 1073,789 C1073,778.8 1072.5,768.6 1071.5,758.5 C1070.8,752.1 1070.3,744.3 1064.5,740.2 C1050.6,730.4 1043.2,757.3 1040.5,766 C1034.2,785.9 1032.8,806.9 1036.1,827.5 C1036.6,826.9 1037.1,826.2 1037.5,825.6 C1025.5,824.9 1025.8,839.2 1027.3,847.2 C1029.9,861 1034.4,874.4 1040.5,887.1 C1041.4,889.1 1043.9,887.5 1043.1,885.8 L1043.1,885.8 Z" fill="#000000" class="color000 svgShape"></path><path d="M1073.3 803.5C1073 796.7 1073.7 789.9 1075.6 783.4 1076.5 780.2 1077.7 777.1 1079.1 774 1079.8 772.6 1080.5 771.2 1081.3 769.9 1081.8 769.2 1082.4 768.6 1082.9 767.9 1085.9 764.9 1088.4 765.4 1090.3 769.5 1090 771.4 1092.6 772.2 1093.2 770.3 1095.2 763.7 1099.1 755.5 1107.1 755.1 1115.6 754.7 1117.9 763.3 1118.2 770.1 1118.9 783.2 1116.6 796.6 1113.2 809.2 1106.2 834.9 1093.3 858.6 1080.5 881.9 1079.6 883.6 1082.2 885.1 1083.1 883.4 1099 854.4 1115.4 824.3 1120 791.2 1121 783.8 1121.7 776.2 1121.1 768.7 1120.7 763.5 1119.3 757.7 1114.9 754.4 1110.7 751.3 1105 751.6 1100.6 754 1094.9 757.2 1092 763.4 1090.2 769.4 1091.2 769.7 1092.1 769.9 1093.1 770.2 1093.6 766.8 1091.7 763.9 1088.2 763.1 1084.4 762.2 1081.1 764.7 1079 767.7 1071.9 777.6 1069.7 791.6 1070.2 803.4 1070.3 805.4 1073.3 805.4 1073.3 803.5L1073.3 803.5zM1002.7 934.3C1045.7 910.8 1096.7 912.3 1143.8 919.1 1195.1 926.5 1246.7 940.1 1298.8 933.6 1327.7 930 1357 920.1 1386.2 927 1388.1 927.4 1388.9 924.6 1387 924.1 1361.7 918.1 1336.3 924.4 1311.3 928.7 1284.2 933.3 1257 932.9 1229.7 929.6 1178.5 923.5 1128 909.3 1076 912 1050 913.3 1024.2 919.1 1001.2 931.6 999.5 932.6 1001 935.2 1002.7 934.3zM1134.4 865.4C1172.7 868.9 1209.9 857.7 1246.9 849.3 1266.4 844.9 1286.2 841.1 1306.2 840.9 1327.1 840.6 1347.6 844.8 1368.1 848.3 1389.9 852.1 1411.9 854.9 1433.9 850.8 1435.8 850.4 1435 847.6 1433.1 847.9 1392.2 855.5 1352.2 838.5 1311.5 837.8 1273.4 837.2 1236.7 849.4 1199.8 857.1 1178.3 861.6 1156.5 864.4 1134.5 862.4 1132.5 862.3 1132.5 865.3 1134.4 865.4L1134.4 865.4zM245.4 732.5C241.9 728.7 238.8 724.4 236.5 719.7 235.4 717.4 234.4 715.1 233.7 712.6 233.1 710.7 232.5 708.7 232.9 706.8 233.3 704.6 235.7 699.7 239.2 702.9 240.3 703.9 242.1 702.9 241.7 701.4 236.2 681.6 234.9 661.5 233.5 641.1 232.1 620.8 230.6 600 234.6 579.9 235.6 575.1 236.3 568.1 241.7 566.4 248.4 564.2 253.1 571.3 255 576.6 258.4 585.8 260.5 595.8 262.7 605.4 267.4 625.8 270.6 646.5 272.5 667.3 274.5 690.2 274.8 713.2 273.5 736.1 273.4 738 276.4 738 276.5 736.1 279.2 689.5 275 642.5 263.8 597.2 262.4 591.6 261 586.1 259.4 580.6 258.1 576.2 256.7 571.7 253.8 568.2 249.9 563.6 242.5 561.1 237.4 565.3 234.4 567.8 233.4 572 232.6 575.6 231.4 580.9 230.5 586.2 230 591.6 228.8 603.1 229 614.7 229.6 626.3 231 651.8 232.1 677.7 238.9 702.4 239.7 701.9 240.6 701.4 241.4 700.9 235.9 695.8 229.6 702.3 229.9 708.3 230.3 718 237.1 727.9 243.4 734.7 244.6 736.1 246.7 734 245.4 732.5L245.4 732.5z" fill="#000000" class="color000 svgShape"></path><path d="M274.7 646.1C270.6 636.6 272.9 626.4 275.4 616.8 277.6 608.1 279.8 599.6 279.8 590.6 279.9 580.4 279.2 570.5 281.8 560.5 283 555.9 284.7 551.5 286.8 547.2 287.7 545.4 288.8 542.5 290.3 541.2 294.8 537.2 297.1 544.6 298.1 547.4 304.9 566.1 306.1 586.3 306.4 606 306.8 626.7 306.2 647.4 304.7 668 303 691.7 300 715.3 295.9 738.8 295.6 740.7 298.5 741.5 298.8 739.6 307.1 692.6 310.9 644.6 309.1 597 308.7 586 307.8 574.9 305.6 564.1 304.6 558.8 303.2 553.5 301.5 548.4 300.3 544.9 299.1 540.1 295.9 537.8 288.9 532.7 284.2 545.2 282.3 549.7 278.4 558.8 276.5 568.5 276.5 578.4 276.5 585 277 591.6 276.3 598.2 275.6 604.6 273.7 610.7 272.2 616.9 269.6 627.2 267.7 637.6 272 647.7 272.9 649.3 275.5 647.8 274.7 646.1L274.7 646.1zM139.1 512.8C196.1 470.3 254.3 427.5 320.4 399.9 353 386.3 387.5 376.8 422.8 374 461.8 370.9 501 376.1 538.8 385.9 616 406.1 686.1 445.1 759.1 476.1 829.8 506.2 903.9 525.9 979.5 538.8 1055.2 551.7 1131.8 558.4 1208.3 564.3 1217.8 565 1227.3 565.8 1236.8 566.5 1238.7 566.6 1238.7 563.6 1236.8 563.5 1158.5 557.6 1080.1 551.6 1002.5 539.5 925.8 527.6 849.7 509.7 777.6 480.6 704.4 451.1 635.2 411.8 559.5 388.7 522.7 377.5 484.5 370.1 445.9 370.1 410.4 370.1 375.3 376.9 341.9 388.5 274.8 411.9 215.4 452.8 158.6 494.6 151.6 499.8 144.6 505 137.6 510.2 136 511.4 137.5 514 139.1 512.8L139.1 512.8z" fill="#000000" class="color000 svgShape"></path><path d="M1001.9 537C1063.2 538.3 1122.4 520.5 1181.2 505.5 1211.4 497.8 1241.8 490.7 1272.8 487.4 1303.7 484 1334.9 484.8 1365.5 490.6 1400.1 497.1 1433.4 509.7 1463.7 527.5 1465.4 528.5 1466.9 525.9 1465.2 524.9 1412.3 493.9 1350.7 479.1 1289.5 483 1227.1 486.9 1167.6 507.4 1107 521.2 1072.5 529.1 1037.3 534.8 1001.8 534.1 1000 534 1000 537 1001.9 537L1001.9 537zM1320.1 744.8C1362.9 738.3 1406.6 738.1 1449.5 744.4 1451.4 744.7 1452.2 741.8 1450.3 741.5 1406.8 735.2 1362.8 735.4 1319.3 741.9 1317.4 742.2 1318.2 745 1320.1 744.8zM3.3 653.1C35.6 613.9 70.6 576.9 108 542.6 109.4 541.3 107.3 539.2 105.9 540.5 68.4 574.8 33.4 611.7 1.2 651 0 652.5 2.1 654.6 3.3 653.1zM1165.3 108.1C1151.8 112.8 1141.2 101.5 1134.6 91.2 1128.1 81.2 1123.4 70.3 1123.4 58.1 1123.5 35.2 1138.8 15.1 1160 7.1 1179.6-.2 1203.5 3.7 1218.7 18.5 1234.4 33.8 1238.4 57.6 1228.5 77 1225.7 82.5 1222.1 87.7 1218.5 92.7 1216.4 95.6 1214.4 98.8 1211.5 101.1 1208.1 103.7 1204.3 104.2 1200.2 104.7 1186.2 106.4 1172.1 107.9 1158 109.5 1156.1 109.7 1156.1 112.7 1158 112.5 1173.2 110.8 1188.7 109.7 1203.8 107.3 1216.1 105.3 1222.7 92.9 1228.5 83 1240.3 62.9 1239.4 38.4 1224.2 20.2 1209.1 2.1 1182.5-3.8 1160.5 3.7 1138.4 11.3 1121.9 31.2 1120.4 54.8 1119.5 69.7 1125.4 83.4 1133.7 95.4 1140.9 105.8 1152.4 115.6 1165.9 110.9 1167.9 110.4 1167.1 107.5 1165.3 108.1L1165.3 108.1zM251.8 145.7C247.6 135.4 258.6 127 267.9 126.3 277.8 125.6 287.3 129.8 296.9 131.6 315 135.1 333.6 133.7 351.1 127.9 367.9 122.3 384.3 113.1 402.4 112.7 421 112.4 437.6 123.4 456.4 121.1 465.5 120 474.3 117.1 483.5 116.4 492 115.7 504.8 117.3 507.8 127 510.8 136.7 497.2 144.8 490 148.3 482 152.2 473.1 154.3 464.3 154.4 454.9 154.4 446.5 151.6 437.7 148.7 429.6 146 421.6 144.4 413.1 144.6 396.9 144.9 381.3 150.1 365.8 154.4 356.2 157.1 346.4 159.6 336.4 160.4 326.1 161.2 316.7 159.4 306.8 157 297 154.6 288.4 155.5 278.5 156.9 272.6 157.7 266.4 158.2 260.9 155.3 256 152.7 252 148.1 253.2 142.2 253.6 140.3 250.7 139.5 250.3 141.4 248.8 148.3 252.8 154.1 258.8 157.5 266.9 162.1 275.9 160.2 284.7 158.9 290.8 158 296.5 157.8 302.6 159 308 160.1 313.3 161.9 318.8 162.8 327.4 164.2 336.1 163.7 344.7 162.4 364.3 159.2 382.8 151.3 402.4 148.5 412.9 147 423.3 147.4 433.5 150.5 443 153.4 452 157.1 462 157.4 478.1 158 499.2 151.6 508.6 137.6 512.8 131.3 511.5 124 505.8 119.2 499.5 113.7 490.7 112.8 482.7 113.6 472.4 114.6 462.5 118.1 452.2 118.6 440.7 119.2 430.1 114.8 419.1 112 398.6 106.8 380.6 113.5 361.6 120.9 350 125.4 338.4 129.1 325.9 130.2 312.3 131.4 299.3 129.4 286.1 126 276.7 123.6 265.9 121.1 257.1 126.6 250.4 130.8 245.8 138.7 248.9 146.5 249.6 148.2 252.5 147.5 251.8 145.7L251.8 145.7zM1087.9 310.8C1102.3 296.8 1123.2 297 1142 298.8 1164 300.9 1185.3 303.7 1207.5 301.3 1218.9 300 1230 297.6 1241.1 294.7 1252.7 291.7 1264.6 288.5 1276.8 288.9 1289.1 289.3 1300.6 294.2 1312.7 295.9 1323.7 297.4 1334.8 296.1 1345.7 294 1355.5 292.2 1365.2 289.2 1375.3 289.7 1384.2 290.1 1395.1 294.6 1394.3 305.4 1393.5 315.5 1382.1 322.5 1373 324 1361.4 325.8 1349.6 321.6 1338.1 320.7 1316.5 319 1300.2 333.5 1279.7 337.2 1258.1 341.1 1237.8 329.2 1217.3 324.8 1192.1 319.5 1168.2 330.5 1143.6 334.5 1131.3 336.5 1117 339.2 1104.6 336.7 1098.5 335.4 1092.7 332.4 1089.7 326.7 1087 321.4 1086.9 315 1091.4 310.7 1092.8 309.4 1090.7 307.2 1089.3 308.6 1083.5 314.1 1083.8 322.8 1087.8 329.4 1092.6 337.3 1101.8 340 1110.5 340.5 1136.1 342 1161.1 333.3 1185.7 328.1 1199.4 325.2 1212 326.2 1225.4 330 1236.6 333.2 1247.4 337.6 1258.9 339.7 1269.8 341.7 1280.3 341.1 1290.7 337.3 1301.6 333.4 1311.8 327.3 1323.2 324.7 1344.8 319.8 1369.1 335.7 1388.5 320.5 1395 315.4 1399.5 307.2 1396.4 299 1393.7 291.9 1386.8 288.4 1379.7 287.4 1370.5 286 1361.6 288 1352.6 289.9 1338.3 292.9 1323.7 295.3 1309.1 292.5 1296.5 290.1 1284.6 285.6 1271.5 286.2 1259.1 286.8 1247.1 290.4 1235.1 293.4 1219.9 297.2 1204.4 299.4 1188.7 299.7 1175.1 299.9 1161.7 298.2 1148.2 296.7 1126.9 294.3 1102.6 292.8 1086 308.9 1084.4 310 1086.5 312.1 1087.9 310.8L1087.9 310.8zM436.6 990.7C432.1 986.6 428.2 982 425 976.8 423.5 974.4 422.1 971.8 421 969.2 420.4 967.7 419.4 965.5 419.6 963.8 419.9 960.9 422.7 956.5 426.1 959.2 427.4 960.3 429.3 959 428.5 957.4 424.7 950 422.4 941.5 422.8 933.1 422.9 931.5 423.1 930 423.7 928.5 424.2 927.2 424.9 926 425.8 924.9 427.6 923.1 429.2 923.1 430.6 925.1 434.3 927.8 435.8 933 437.5 937.1 443.6 951.7 448.1 966.9 451.2 982.4 452.2 982.1 453.1 981.9 454.1 981.6 451.4 974.1 449.3 966.4 448 958.5 447.1 952.9 445.5 934.3 457 940.5 464.4 944.5 465.8 956.4 465.8 963.9 465.9 972.2 464.3 980.3 462.7 988.4 462.3 990.3 465.2 991.1 465.6 989.2 467.6 978.9 469.7 968.2 468.4 957.6 467.4 949.9 464 937.6 454.7 936.4 447.3 935.5 444.3 943 444.1 949.1 443.7 960.2 447.5 972.2 451.2 982.5 451.9 984.3 454.5 983.6 454.1 981.7 451.8 970.1 448.6 958.6 444.6 947.5 442.8 942.5 440.9 937.6 438.7 932.7 437.1 929 435.5 923.7 431.6 921.6 425.4 918.2 421 925.1 420 930.3 418.2 939.8 421.5 950.7 425.7 959.1L428.1 957.3C422 952.2 415.8 959.5 416.7 965.9 418.2 976.1 427.2 986.2 434.4 993 435.9 994.1 438 992 436.6 990.7L436.6 990.7zM316.2 238C338.4 233.5 361 229 383.8 231 405.7 232.9 426.4 240.7 447.6 246.1 489 256.5 531.9 260.2 574.5 260.1 598.9 260 623.2 258.8 647.5 256.8 649.4 256.6 649.4 253.6 647.5 253.8 604.1 257.2 560.3 258.6 516.8 254.6 494.7 252.6 472.7 249.1 451.1 243.9 430.5 238.9 410.5 231.4 389.4 228.7 364.5 225.5 339.7 230.3 315.4 235.2 313.5 235.5 314.3 238.4 316.2 238L316.2 238zM550.2 238.2C623.6 234.4 694.9 209.4 768.9 214 770.8 214.1 770.8 211.1 768.9 211 695 206.4 623.6 231.5 550.2 235.2 548.2 235.3 548.2 238.3 550.2 238.2zM1154.1 737.4C1151.2 730.1 1149.7 722.4 1149.8 714.5 1149.8 710.5 1150.3 706.5 1151.2 702.6 1152 699 1156 689.7 1160.6 695.6 1161.4 696.6 1163.3 695.8 1163.2 694.5 1162.2 685.9 1162.4 677.3 1164 668.8 1164.7 665.1 1165.7 661.4 1167 657.8 1167.8 655.6 1168.6 653.2 1169.7 651.1 1171.3 648.1 1173.1 647.3 1176.1 645.8 1181.5 643.3 1181.6 636.8 1182.9 631.6 1184.7 624.5 1186.8 617.3 1190.9 611.2 1193.3 607.6 1197.8 601.8 1202.7 603.1 1206.6 604.1 1208 608.3 1208.7 611.9 1210.3 619.8 1209.2 628.6 1208.8 636.6 1207.9 654.3 1205.6 672 1202 689.3 1198 708.3 1192.3 726.9 1185.2 745 1184.5 746.8 1187.4 747.6 1188.1 745.8 1202.9 708.4 1211.2 668.5 1212.2 628.2 1212.4 620.4 1213.4 594.4 1198 600.4 1191.5 603 1187.1 610.9 1184.5 617 1183 620.5 1181.9 624.1 1180.9 627.7 1179.4 633.2 1179.4 640 1174.1 643.2 1171 645.1 1169 645.9 1167.2 649.5 1165.1 653.6 1163.6 658.3 1162.4 662.8 1159.7 673.1 1159 683.8 1160.3 694.4 1161.2 694 1162 693.7 1162.9 693.3 1160.9 690.8 1157.6 690.2 1154.7 691.5 1150.8 693.3 1149.4 697.8 1148.5 701.6 1145.7 713.7 1146.9 726.4 1151.4 738 1151.9 740 1154.8 739.2 1154.1 737.4L1154.1 737.4z" fill="#000000" class="color000 svgShape"></path><path d="M1125.7 732.2C1121.4 725.5 1117.2 718.5 1115 710.7 1114 707.1 1113.4 703.4 1113.6 699.7 1113.9 695.6 1115.6 692.4 1117 688.6 1119.2 682.5 1115.7 676.7 1114.3 670.8 1113.6 668 1109.5 643.1 1118.3 646.5 1119.4 646.9 1120.4 645.7 1120.1 644.7 1117.2 631.8 1114.2 618.1 1118.3 605.2 1120.1 599.5 1127.4 584.7 1134.9 591.5 1139.5 595.7 1142.1 603.5 1144.2 609.1 1153.4 634.4 1157.4 662.5 1159.2 689.3 1159.3 691.2 1162.3 691.2 1162.2 689.3 1161 671.8 1158.6 654.4 1154.9 637.3 1151.7 622.3 1148.2 605.6 1139.5 592.6 1136.8 588.6 1132.9 585.2 1127.8 587.3 1122.4 589.5 1118.7 596.1 1116.6 601.1 1110.7 615.4 1114 631 1117.2 645.6 1117.8 645 1118.4 644.4 1119 643.8 1113.7 641.7 1110.5 647.7 1109.7 652.2 1108.1 662.2 1111.8 671.5 1114.1 681 1115.5 686.8 1112 690.9 1111 696.3 1110.2 700.1 1110.4 703.9 1111.1 707.7 1112.8 717.2 1118 725.9 1123.1 734 1124.1 735.3 1126.7 733.8 1125.7 732.2L1125.7 732.2zM1206 681.9C1208.7 672.6 1211.5 663.3 1217.2 655.4 1222.7 647.8 1229.1 640.6 1235.2 633.5 1238.4 629.9 1241.6 626.3 1245.1 623 1246.9 621.3 1248.7 619.5 1251 618.3 1255.5 615.9 1258.5 619 1259.7 623.1 1262.4 632.5 1260.2 642.7 1257.8 652 1248.6 687.2 1232.6 720.5 1211.2 750 1210.1 751.6 1212.7 753.1 1213.8 751.5 1233.5 724.4 1248.5 694.1 1258.1 662 1260.4 654.3 1262.7 646.4 1263.5 638.4 1264.2 631.9 1264.4 622.9 1260.5 617.3 1252.3 605.7 1235.3 628.8 1230.8 634.1 1225 640.9 1218.8 647.7 1213.7 655.1 1208.4 662.9 1205.7 672 1203.1 681 1202.5 682.9 1205.4 683.7 1206 681.9L1206 681.9zM1200.2 604.3C1196.4 650.9 1186.4 696.7 1170.5 740.6 1169.8 742.4 1172.7 743.2 1173.4 741.4 1189.4 697.2 1199.4 651.1 1203.2 604.3 1203.3 602.4 1200.3 602.4 1200.2 604.3L1200.2 604.3z" fill="#000000" class="color000 svgShape"></path><path d="M1173 644.6C1178.4 664.9 1181.2 685.6 1181.4 706.6 1181.4 708.5 1184.4 708.5 1184.4 706.6 1184.2 685.4 1181.4 664.3 1175.9 643.8 1175.4 641.9 1172.5 642.7 1173 644.6zM1186.6 621.9C1190.1 635.7 1191.8 649.8 1191.9 664 1191.9 665.9 1194.9 665.9 1194.9 664 1194.8 649.5 1193 635.1 1189.5 621.1 1189 619.2 1186.1 620 1186.6 621.9L1186.6 621.9zM1178.1 729.8C1185.8 723.8 1192.7 716.9 1198.7 709.3 1199.9 707.8 1197.8 705.7 1196.6 707.2 1190.5 714.9 1183.7 721.7 1176 727.7 1174.5 728.9 1176.6 731 1178.1 729.8zM1126 589.9C1134.7 626.2 1141.5 662.9 1146.2 699.9 1146.4 701.8 1149.4 701.8 1149.2 699.9 1144.4 662.6 1137.6 625.6 1128.9 589.1 1128.5 587.2 1125.6 588 1126 589.9z" fill="#000000" class="color000 svgShape"></path><path d="M1114.1 624.3C1122.9 629.6 1130.4 636.4 1136.4 644.8 1137.5 646.4 1140.1 644.9 1139 643.3 1132.7 634.5 1124.9 627.3 1115.7 621.8 1113.9 620.7 1112.4 623.3 1114.1 624.3zM1152.4 645.2C1148.8 654.2 1145.9 663.4 1143.7 672.9 1143.3 674.8 1146.1 675.6 1146.6 673.7 1148.8 664.3 1151.7 655 1155.3 646 1156 644.2 1153.1 643.4 1152.4 645.2zM1113.9 690.6C1124.9 693.7 1135.6 697.3 1146.2 701.5 1148 702.2 1148.8 699.3 1147 698.6 1136.4 694.4 1125.6 690.8 1114.7 687.7 1112.8 687.2 1112 690.1 1113.9 690.6zM1254.8 619.2C1241.5 665.5 1204.7 701 1192.9 747.9 1192.4 749.8 1195.3 750.6 1195.8 748.7 1207.6 701.8 1244.4 666.3 1257.7 620 1258.3 618.1 1255.4 617.3 1254.8 619.2z" fill="#000000" class="color000 svgShape"></path><path d="M1228 638.7C1225.5 654.9 1222.9 671.1 1220.4 687.3 1220.1 689.2 1223 690 1223.3 688.1 1225.8 671.9 1228.4 655.7 1230.9 639.5 1231.2 637.6 1228.3 636.8 1228 638.7zM1231 674.3C1239.9 667.9 1249.2 662.1 1258.9 656.8 1260.6 655.9 1259.1 653.3 1257.4 654.2 1247.7 659.4 1238.4 665.2 1229.5 671.7 1227.9 672.9 1229.4 675.5 1231 674.3zM1202.3 732.3C1211.4 721.6 1224.4 716.2 1237.2 711.1 1239 710.4 1238.2 707.5 1236.4 708.2 1223.2 713.5 1209.7 719.1 1200.2 730.2 1198.9 731.7 1201 733.8 1202.3 732.3zM1057 741.8C1060.7 765.2 1057.6 788.7 1054.1 812 1050.7 834.9 1047.3 857.9 1043.9 880.8 1043.6 882.7 1046.5 883.5 1046.8 881.6 1050.4 857.4 1054.1 833.2 1057.6 809 1060.9 786.5 1063.5 763.7 1059.9 741.1 1059.5 739.1 1056.7 739.9 1057 741.8L1057 741.8z" fill="#000000" class="color000 svgShape"></path><path d="M1037.5 784.5C1040.9 798.5 1045.5 812.1 1051.3 825.3 1052.1 827.1 1054.7 825.5 1053.9 823.8 1048.3 810.8 1043.8 797.5 1040.4 783.7 1039.9 781.9 1037 782.7 1037.5 784.5L1037.5 784.5zM1067.6 756.1C1066.2 765.2 1062.9 773.5 1057.7 781 1056.6 782.6 1059.2 784.1 1060.3 782.5 1065.6 774.8 1069.1 766.1 1070.5 756.8 1070.7 755 1067.8 754.2 1067.6 756.1L1067.6 756.1zM1108.9 757.6C1096.6 800.3 1080.9 841.9 1062.1 882.2 1061.3 883.9 1063.9 885.5 1064.7 883.7 1083.6 843.2 1099.4 801.3 1111.8 758.4 1112.3 756.6 1109.4 755.8 1108.9 757.6L1108.9 757.6z" fill="#000000" class="color000 svgShape"></path><path d="M1101 755.8C1100.6 765.5 1100.3 775.1 1099.9 784.8 1099.8 786.7 1102.8 786.7 1102.9 784.8 1103.3 775.1 1103.6 765.5 1104 755.8 1104.1 753.9 1101.1 753.9 1101 755.8zM1078.8 768.8C1073.4 791.4 1078.8 815 1082 837.6 1082.3 839.5 1085.2 838.7 1084.9 836.8 1081.8 814.8 1076.5 791.7 1081.7 769.6 1082.2 767.7 1079.3 766.9 1078.8 768.8zM1074.4 860.9C1084.1 858.5 1093.1 854.4 1101.2 848.6 1102.8 847.5 1101.3 844.9 1099.7 846 1091.8 851.6 1083.1 855.6 1073.6 858 1071.7 858.4 1072.5 861.3 1074.4 860.9zM240.9 567.7C251 622.3 257.3 677.6 259.6 733 259.7 734.9 262.7 734.9 262.6 733 260.3 677.2 254 621.7 243.8 566.9 243.4 565 240.5 565.8 240.9 567.7L240.9 567.7z" fill="#000000" class="color000 svgShape"></path><path d="M230 631.1C240.6 644.4 249.1 659.1 255.3 674.9 256 676.7 258.9 675.9 258.2 674.1 251.8 657.8 243.1 642.7 232.2 629 231 627.5 228.8 629.6 230 631.1zM260 594.4C256.4 609.3 253.7 624.4 251.8 639.6 251.6 641.5 254.6 641.5 254.8 639.6 256.6 624.7 259.3 609.9 262.9 595.2 263.3 593.3 260.4 592.5 260 594.4L260 594.4zM291.4 540.7C293.2 606 290 671.3 281.8 736.1 281.6 738 284.6 738 284.8 736.1 293 671.3 296.2 606 294.4 540.7 294.3 538.8 291.3 538.8 291.4 540.7z" fill="#000000" class="color000 svgShape"></path><path d="M274.6 609.4C281.8 626.5 286.8 644.4 289.5 662.8 289.8 664.7 292.7 663.9 292.4 662 289.7 643.6 284.7 625.7 277.5 608.6 276.7 606.9 273.8 607.6 274.6 609.4zM286.1 722.5C290.4 714.1 296.1 706.8 303.1 700.5 304.5 699.2 302.4 697.1 301 698.4 293.8 704.8 287.9 712.4 283.5 721 282.6 722.7 285.2 724.2 286.1 722.5zM281.8 551.8C284.4 560.1 287.3 568.2 290.5 576.3 291.2 578.1 294.1 577.3 293.4 575.5 290.1 567.5 287.2 559.3 284.7 551 284.1 549.1 281.2 549.9 281.8 551.8zM67 945.8C132.6 939.4 199 941.4 264 952 282.3 955 300.6 958.7 318.7 963 320.6 963.4 321.4 960.6 319.5 960.1 255.4 944.8 189.5 937.8 123.6 939.3 104.7 939.8 85.8 940.9 67 942.8 65.1 942.9 65 945.9 67 945.8zM655 974.5C655.1 970.2 665.8 969.4 668.4 969.7 672.8 970.1 677 972.4 679.4 976.1 687.3 988.3 671.3 993.2 662.1 990.2 660.3 989.6 659.5 992.5 661.3 993.1 667.7 995.3 676.2 995 681.4 989.9 685.8 985.6 684.9 978.7 681.6 974 677.9 968.8 671.8 966.2 665.5 966.6 661.1 966.9 652.1 968.9 652 974.5 652 976.4 655 976.4 655 974.5L655 974.5z" fill="#000000" class="color000 svgShape"></path><path d="M654.5,972.9 C660.9,963.9 674.3,959.8 684.3,956.6 C695.4,953.1 706.9,951 718.6,950.4 C720.5,950.3 720.5,947.3 718.6,947.4 C705.5,948.1 692.5,950.5 680.1,954.8 C670.1,958.3 658.3,962.4 651.9,971.4 C650.8,973 653.4,974.5 654.5,972.9 L654.5,972.9 Z" fill="#000000" class="color000 svgShape"></path><path d="M720.1,950.8 C727.8,951.7 734,957.7 735.5,965.2 C735.9,967.1 738.8,966.3 738.4,964.4 C736.6,955.4 729.1,948.9 720.1,947.8 C718.1,947.6 718.2,950.6 720.1,950.8 L720.1,950.8 Z" fill="#000000" class="color000 svgShape"></path><path d="M723.8,947.7 C735,940.7 745.9,949.7 748.2,961 C748.6,962.9 751.5,962.1 751.1,960.2 C748.3,946.9 735.1,937.1 722.3,945.1 C720.7,946.2 722.2,948.8 723.8,947.7 Z" fill="#000000" class="color000 svgShape"></path><path d="M736.2 967.3C742.4 969.3 749 965.8 751.2 959.8 751.9 958 749 957.2 748.3 959 746.7 963.5 741.5 965.9 737 964.4 735.1 963.8 734.3 966.7 736.2 967.3L736.2 967.3zM654.1 971.4C648.9 974.4 649.2 981.5 651.2 986.4 653.4 992 658.8 995.7 664.9 994.2 666.8 993.7 666 990.9 664.1 991.3 659.4 992.4 655.6 989.4 654 985.2 652.7 981.8 651.8 976.2 655.7 974 657.3 973 655.8 970.4 654.1 971.4L654.1 971.4z" fill="#000000" class="color000 svgShape"></path><path d="M655.5 982.8C652.5 974.7 667.1 969.8 672.2 974.4 675.4 977.3 674.6 981.9 671.2 984.3 669.7 985.4 667.8 986.2 665.9 985.8 659.2 984.5 664.7 976.8 668 981.2 669.2 982.7 671.8 981.2 670.6 979.7 666.7 974.6 658.1 977.2 659.7 984.1 661.4 991.7 672.2 989 675.5 984.3 680.1 977.7 675.1 969.7 667.5 969.6 660.3 969.5 649.4 974.7 652.7 983.5 653.3 985.4 656.2 984.6 655.5 982.8L655.5 982.8zM679.4 990.6C700.4 986.1 720.4 978.4 739 967.7 740.7 966.7 739.2 964.1 737.5 965.1 719.1 975.7 699.3 983.2 678.6 987.7 676.7 988.1 677.5 991 679.4 990.6zM735.8 943C752.8 928.7 769.8 911.7 791.6 905.2 793.4 904.6 792.7 901.8 790.8 902.3 768.5 909 751.1 926.3 733.7 940.9 732.2 942.1 734.4 944.2 735.8 943L735.8 943z" fill="#000000" class="color000 svgShape"></path><path d="M791.4,906.3 C802.6,910.1 810.7,920.1 811.9,931.9 C812.1,933.8 815.1,933.8 814.9,931.9 C813.6,918.7 804.8,907.6 792.2,903.4 C790.4,902.8 789.6,905.7 791.4,906.3 Z" fill="#000000" class="color000 svgShape"></path><path d="M750.9 962.7C771.4 953.6 791.8 944.1 812 934.2 813.7 933.4 812.2 930.8 810.5 931.6 790.3 941.5 769.9 950.9 749.4 960.1 747.6 960.9 749.2 963.5 750.9 962.7zM722.9 949.1C723.6 948.6 724.3 948.2 724.9 947.7 725.6 947.2 725.9 946.4 725.4 945.6 725 944.9 724 944.6 723.3 945.1 722.6 945.6 721.9 946 721.3 946.5 720.6 947 720.3 947.8 720.8 948.6 721.2 949.2 722.2 949.6 722.9 949.1zM426.2 924.3C428.1 946.7 433.1 968.6 441.2 989.5 441.9 991.3 444.8 990.5 444.1 988.7 436.1 968 431 946.4 429.2 924.3 429.1 922.4 426.1 922.4 426.2 924.3L426.2 924.3z" fill="#000000" class="color000 svgShape"></path><path d="M421 969.2C427.2 972.4 432.7 976.6 437.6 981.7 438.9 983.1 441 981 439.7 979.6 434.7 974.3 429 970 422.5 966.7 420.8 965.7 419.3 968.3 421 969.2L421 969.2zM442.9 954.2C438.6 960.4 436.7 967.6 437.4 975.1 437.6 977 440.6 977 440.4 975.1 439.8 968.1 441.5 961.6 445.5 955.7 446.5 954.2 443.9 952.7 442.9 954.2zM451.8 945.9C454.7 958.3 455.6 970.9 454.3 983.6 454.1 985.5 457.1 985.5 457.3 983.6 458.5 970.7 457.6 957.8 454.6 945.1 454.3 943.3 451.4 944.1 451.8 945.9z" fill="#000000" class="color000 svgShape"></path><path d="M447.4,950.3 C449.8,954.9 452.2,959.6 454.6,964.2 C455.5,965.9 458.1,964.4 457.2,962.7 C454.8,958.1 452.4,953.4 450,948.8 C449.1,947.1 446.5,948.6 447.4,950.3 Z" fill="#000000" class="color000 svgShape"></path></g><circle cx="506.6" cy="306.8" r="16.9" fill="#1c7042" class="colorE5261F svgShape"></circle><circle cx="1051.2" cy="671.6" r="12.2" fill="#161616" class="color161616 svgShape"></circle><circle cx="1069" cy="655.2" r="5" fill="#161616" class="color161616 svgShape"></circle><circle cx="260.3" cy="348" r="8.6" fill="#161616" class="color161616 svgShape"></circle><circle cx="292.7" cy="365.8" r="9.4" fill="#1c7042" class="colorE5261F svgShape"></circle><circle cx="589" cy="579.1" r="5.2" fill="#1c7042" class="colorE5261F svgShape"></circle><circle cx="994.5" cy="84.8" r="9" fill="#1c7042" class="colorE5261F svgShape"></circle><circle cx="1034.5" cy="118" r="6.8" fill="#1c7042" class="colorE5261F svgShape"></circle><circle cx="1027.5" cy="626.6" r="7" fill="#1c7042" class="colorE5261F svgShape"></circle><circle cx="559" cy="89.3" r="4.5" fill="#1c7042" class="colorE5261F svgShape"></circle><path fill="#1c7042" d="M448.1 469.4C446.9 467.8 448.1 465 449.6 464.1 451.5 462.9 454.1 463.5 456.1 464 458.2 464.5 460.1 465.5 462.1 466 464.7 466.7 467.6 467 470.2 466 473 464.9 474.4 462.7 475 459.9 475.6 457.5 475.4 454.5 477.4 452.6 479.3 450.7 482.3 450.5 484.8 450.5 491.2 450.6 497.5 454.2 501 446.8 502.8 442.8 503.1 438.4 507.5 436.1 512.8 433.3 519.2 435.7 524.4 437.5 526.2 438.1 527 435.3 525.2 434.6 517.3 431.8 505.9 429.2 501 438.5 500.2 440.1 499.7 441.9 499.1 443.5 498.5 445 497.8 447.6 496.2 448.3 494.4 449.1 491.1 448.2 489.2 447.9 485.5 447.4 481.6 447 478 448.6 474.4 450.3 473.2 453.2 472.5 457 470.7 467.1 462.7 462.4 456.1 460.8 452.5 459.9 448.6 460.2 446.1 463.2 444.2 465.5 443.7 468.4 445.5 470.8 446.6 472.5 449.2 471 448.1 469.4L448.1 469.4zM471.3 485.6C472.3 479.8 476.8 476.6 482.6 476.9 485.8 477 489.3 478.1 492.5 477.1 494.7 476.4 496.4 474.9 497.3 472.8 499.4 468.2 499.4 464.3 503.9 460.9 507.7 458 512.2 457.1 516.8 458.2 519.7 458.9 522.8 460.2 525.8 459.1 529 457.9 530.5 454.2 533.4 452.3 537.1 449.9 541.6 449.1 545.8 448.4 547.7 448.1 546.9 445.2 545 445.5 541.1 446.2 537.2 447 533.7 448.7 532.1 449.5 530.7 450.4 529.4 451.6 526.8 454 525.7 456.4 521.4 456.2 517.7 456.1 514.8 454.3 510.9 454.8 507.4 455.3 504.1 456.8 501.4 459 498.9 461.1 496.9 463.8 495.9 467 494.8 470.3 494.1 474.3 489.6 474.4 487.5 474.5 485.4 474 483.3 473.9 476 473.3 469.7 477.3 468.4 484.7 468.1 486.7 470.9 487.5 471.3 485.6L471.3 485.6zM998.4 457C1004.9 458.2 1008.3 466.7 1015.7 463.9 1020 462.3 1022.6 458.3 1027.6 458.2 1033.1 458.1 1035.6 462.7 1040.3 464.2 1048.1 466.7 1054.3 458.1 1061.8 459.5 1068.6 460.8 1072.8 469 1080.4 466.8 1082.3 466.3 1081.5 463.4 1079.6 463.9 1072.9 465.8 1067.7 456.5 1060.8 456.3 1057.7 456.2 1054.7 457.5 1052 458.7 1046.3 461.3 1042.7 462.9 1037.2 458.8 1031.7 454.6 1025.4 454 1019.5 457.9 1017.7 459.1 1016.3 460.4 1014.2 461 1011.1 461.9 1009.1 460.3 1006.8 458.4 1004.4 456.5 1002.2 454.6 999.1 454 997.3 453.7 996.5 456.6 998.4 457L998.4 457zM1019 447.1C1024.1 451.2 1030 445.5 1035.4 448.9 1040.5 452.1 1043.4 453.1 1049.2 451.1 1052.4 450 1055.6 448.4 1059.1 448.9 1061.9 449.4 1064.1 451.5 1067 451.8 1069.7 452.1 1072 450.6 1074.4 449.5 1079.2 447.4 1083.9 447.6 1088.4 450.5 1090 451.6 1091.5 449 1089.9 447.9 1085.2 444.9 1079.8 444.1 1074.5 446.1 1072.9 446.7 1071 448.2 1069.3 448.5 1066.8 448.9 1064.8 447.8 1062.6 446.8 1060.6 445.9 1058.7 445.6 1056.5 445.8 1053.7 446.1 1051.1 447.3 1048.4 448.1 1044.1 449.5 1041.3 449.3 1037.5 446.6 1035.4 445.1 1033.5 444.3 1030.9 444.4 1027.9 444.5 1023.8 447 1021.1 444.9 1019.6 443.8 1017.5 445.9 1019 447.1L1019 447.1z" class="colorE5261F svgShape"></path><path fill="#e8e8e8" d="M689.1 536.8C689.5 531.5 695.6 531.7 698.8 533.5 700.4 534.4 701.7 535.7 703 537 705.3 539.2 707.5 541.7 710.4 543.1 715.8 545.5 719.1 542.6 723.6 540 737.8 532 748.3 558 762.6 548.9 763.4 548.4 762.7 547.1 761.8 547.6 752.3 553.7 743.4 541.9 735.5 538.4 732.9 537.2 730.1 536.5 727.3 537 723.2 537.7 720.5 541.3 716.6 542.3 707.4 544.8 703.9 531.8 695.6 530.9 691.6 530.4 687.8 532.8 687.5 536.9 687.5 537.8 689 537.8 689.1 536.8L689.1 536.8zM942.9 594.1C944.7 587 950.8 583.3 957.9 583.9 961.5 584.2 964.4 584.1 966.8 581 969.6 577.3 969.7 572.3 973.1 568.8 977.1 564.8 983.2 563.6 988.6 562.6 989.5 562.4 989.1 561 988.2 561.2 983.2 562.1 977.8 563.2 973.7 566.3 969.8 569.3 968.8 573.4 966.9 577.7 964.4 583.2 960.6 582.2 955.5 582.3 953.5 582.3 951.6 582.8 949.8 583.6 945.5 585.6 942.6 589.3 941.4 593.8 941.2 594.7 942.6 595.1 942.9 594.1L942.9 594.1zM977.1 588.5C977.1 583.4 980.2 578.5 985.1 576.9 988.6 575.7 992.3 577.1 995.8 575.9 1001.4 573.9 1004.2 566.9 1010.5 566.6 1011.5 566.5 1011.5 565 1010.5 565.1 1007.4 565.3 1005.1 566.7 1002.8 568.7 1001 570.3 999.4 572.2 997.3 573.4 994 575.5 991 574.6 987.5 574.9 980.5 575.5 975.5 581.7 975.5 588.5 975.6 589.5 977.1 589.5 977.1 588.5L977.1 588.5z" class="colorE8E8E8 svgShape"></path><path fill="#161616" d="M609 154.9C610.6 159.7 614.1 166 620.1 163 623.7 161.2 625.4 157.3 629.7 156.5 634.5 155.6 639.5 158 641.8 162.3 642.4 163.5 644.1 163.1 644.5 161.9 647.5 153.2 658.5 152.5 662.9 160.4 663.8 162.1 666.4 160.6 665.5 158.9 659.8 148.5 645.5 150 641.7 161.1 642.6 161 643.5 160.9 644.4 160.7 641.8 155.8 636.6 153 631.1 153.3 628.6 153.4 626.2 154.1 624.2 155.6 622.9 156.5 621.9 158.2 620.5 159 619.1 159.8 614.7 159.2 613.5 158 612.6 157.1 612.2 155.2 611.9 154.1 611.3 152.3 608.4 153.1 609 154.9L609 154.9zM652.8 141.7C654.7 143.2 656.5 143.2 658.8 142.5 661.9 141.6 663.9 139.7 666.6 143.2 667.5 144.4 667.8 146 669 147.1 671.2 149.3 674.4 149.6 677.4 149.3 680.9 149 690.9 146.6 690.4 153.1 690.3 155 693.3 155 693.4 153.1 694.1 143.9 682 146.2 676.7 146.4 672.8 146.5 671 144.9 669.2 141.7 668.4 140.3 667.6 139.1 666.1 138.4 662.7 136.9 657.5 141.5 654.9 139.5 653.4 138.4 651.2 140.5 652.8 141.7L652.8 141.7zM339.4 686.1C338.3 682.6 338.5 679 340.4 675.9 342.4 672.7 345.5 671.7 348.4 669.8 352.1 667.3 353.5 663.9 354.1 659.6 354.4 657.3 354.4 655 355 652.7 356.1 648.7 358.6 646.9 362.3 645.3 365.7 643.9 368.8 642.7 371 639.6 372.1 638 369.5 636.5 368.4 638.1 365.2 642.5 358.9 642.4 355.1 646.1 351.3 649.9 351.9 655.3 351 660.1 349.7 667.4 343.1 667.8 339 672.7 335.7 676.7 334.9 682.1 336.5 686.9 337.1 688.7 340 687.9 339.4 686.1L339.4 686.1zM340.8 652.9C348.2 648.5 342 637.7 349.5 633.5 353.5 631.2 357.1 630.2 360.3 626.6 363.4 623.1 365.4 618.9 367.4 614.7 368.2 613 365.6 611.4 364.8 613.2 362.8 617.4 360.8 621.6 357.6 625 354.2 628.7 349.6 629.1 345.9 632.1 340.4 636.6 344.8 646.9 339.2 650.3 337.6 651.3 339.1 653.8 340.8 652.9L340.8 652.9zM747.3 527.2C741.2 527.9 736.3 522.5 737.3 516.4 738.3 510.6 743.8 506.1 749.6 505.7 754.3 505.4 759.6 507.3 761.8 511.8 764.2 516.7 762 523.4 756.9 525.3 755.1 526 755.9 528.9 757.7 528.2 763.8 525.8 767 519.2 765.4 512.8 763.5 505.4 755.4 501.8 748.2 502.8 741.2 503.8 734.8 509.6 734.1 516.8 733.4 524.2 739.7 530.9 747.2 530.1 749.2 530 749.2 527 747.3 527.2z" class="color161616 svgShape"></path><path fill="#ffffff" d="M292.3,857.4 C298.6,850.6 308.2,841.1 321.1,831.4 C332.2,823 341.2,817.9 352.6,811.5 C368.9,802.4 389.2,791.3 412.9,778.6 C449.3,775.2 479.9,772.8 502.7,771.1 C545.1,767.9 613.2,762.8 691.2,760.8 C707.3,760.4 722.7,760.1 722.7,760.1 C766.3,759.3 777.3,760 822.8,759.4 C856.2,759 856,758.6 874.2,758.7 C901.6,758.9 924.1,759.9 939.3,760.8 C948.4,761.5 966.9,762.9 985.2,764.9 C988.8,765.3 994.1,765.9 1001,767.6 C1009.3,769.7 1015.9,772.4 1020.2,774.5 C1014.8,782.7 1009.3,790.9 1003.8,799.2 C985.7,826 967.3,851.5 949,876 C946.1,877.8 940.8,880.6 933.9,882.9 C919.2,887.7 906.7,886.6 902.4,886.3 C884.4,885 840.7,885.8 777,887.7 C748.7,887 720.3,886.3 692,885.6 C683.8,898.2 675.6,910.7 667.3,923.3 C612.5,920.3 557.7,917.4 502.8,914.4 C513.8,902.3 524.7,890.2 535.7,878.1 C454.5,871.1 373.4,864.2 292.3,857.4 L292.3,857.4 Z" class="colorFFF svgShape"></path><path fill="#161616" d="M349.8 839.8C399.2 843.1 448.5 846.9 497.8 851.3 499.7 851.5 499.7 848.5 497.8 848.3 448.5 843.9 399.2 840.1 349.8 836.8 347.9 836.7 347.9 839.7 349.8 839.8L349.8 839.8zM730.2 864.7C781.8 864.3 833.5 865.4 885.1 868 887 868.1 887 865.1 885.1 865 833.5 862.4 781.9 861.3 730.2 861.7 728.3 861.7 728.3 864.7 730.2 864.7zM439.2 809.5C464.2 813.9 489.6 813.3 514.9 813.1 541.7 812.9 568.5 813.5 595.3 814.4 648.2 816.3 701.1 819.8 754 822 784.4 823.3 814.9 824.1 845.3 824.1 847.2 824.1 847.2 821.1 845.3 821.1 739.3 821.4 633.7 810.2 527.8 810.1 498.5 810.1 469 811.8 440 806.7 438.2 806.3 437.3 809.2 439.2 809.5zM680.2 788.1C755.4 788.2 830.6 790.4 905.7 794.7 907.6 794.8 907.6 791.8 905.7 791.7 830.6 787.4 755.4 785.2 680.2 785.1 678.3 785.1 678.3 788.1 680.2 788.1zM1019.2 773.6C997 807.5 973.8 840.6 949.5 872.9 948.3 874.4 950.9 875.9 952.1 874.4 976.4 842.1 999.7 808.9 1021.8 775.1 1022.9 773.5 1020.3 772 1019.2 773.6zM318 836.5C348.8 815.2 380 793.8 414.8 779.5 416.6 778.8 415.8 775.9 414 776.6 378.9 791 347.5 812.5 316.4 833.9 314.9 835 316.4 837.6 318 836.5z" class="color161616 svgShape"></path><path fill="#161616" d="M411.9 779.9C491.3 772.6 570.8 767.3 650.4 764.2 730 761.1 809.7 759.9 889.4 761.1 911.7 761.4 934 762 956.2 764 977.6 765.9 1000 768.1 1020 776.4 1021.8 777.1 1022.6 774.2 1020.8 773.5 1003.8 766.4 985.1 764.1 966.9 762.1 947 759.9 927 758.9 907 758.4 867.1 757.4 827.1 757.5 787.2 757.9 707.2 758.6 627.2 761.5 547.3 766.5 502.1 769.3 456.9 772.8 411.8 777 409.9 777.1 409.9 780.1 411.9 779.9L411.9 779.9zM694 887.2C768.5 889.7 843 889.8 917.4 887 930.2 886.5 944.5 885 952.4 873.6 953.5 872 950.9 870.5 949.8 872.1 941.9 883.4 926.6 883.7 914.2 884.1 897.1 884.6 880 885.3 862.8 885.6 826.8 886.3 790.8 886.3 754.8 885.7 734.5 885.4 714.2 884.8 693.9 884.2 692.1 884.1 692.1 887.1 694 887.2L694 887.2zM316.5 833.8C307.7 841.5 298.9 849.2 290.1 856.9 289 857.8 290 859.4 291.2 859.5 372.1 866.5 453 873.5 533.9 878.9 535.8 879 535.8 876 533.9 875.9 452.9 870.4 372 863.5 291.2 856.5 291.6 857.4 291.9 858.2 292.3 859.1 301.1 851.4 309.9 843.7 318.7 836 320 834.6 317.9 832.5 316.5 833.8L316.5 833.8z" class="color161616 svgShape"></path><path fill="#161616" d="M567.9,846.8 C544.6,867.3 522.7,889.2 502.3,912.5 C501,913.9 503.1,916.1 504.4,914.6 C524.8,891.3 546.8,869.3 570,848.9 C571.5,847.6 569.4,845.5 567.9,846.8 L567.9,846.8 Z" class="color161616 svgShape"></path><path fill="#161616" d="M569,848.9 C617.7,844.2 666.7,845.4 715.1,852.6 C717,852.9 717.8,850 715.9,849.7 C667.3,842.4 618,841.1 569,845.9 C567.1,846.1 567.1,849.1 569,848.9 L569,848.9 Z" class="color161616 svgShape"></path><path fill="#161616" d="M713.6,851.6 C697.2,875.1 680.7,898.6 664.3,922.1 C663.2,923.7 665.8,925.2 666.9,923.6 C683.3,900.1 699.8,876.6 716.2,853.1 C717.3,851.5 714.7,850 713.6,851.6 L713.6,851.6 Z" class="color161616 svgShape"></path><path fill="#161616" d="M502.7 916C556.7 918.7 610.8 921.3 664.8 924 666.7 924.1 666.7 921.1 664.8 921 610.8 918.3 556.7 915.7 502.7 913 500.8 912.9 500.8 915.9 502.7 916zM544.6 897.2C553 898.7 561.3 900.1 569.7 901.6 571.6 901.9 572.4 899 570.5 898.7 562.1 897.2 553.8 895.8 545.4 894.3 543.5 894 542.7 896.9 544.6 897.2z" class="color161616 svgShape"></path><path fill="#161616" d="M564.1 888C559 893.3 554.2 898.9 549.7 904.8 548.5 906.3 551.1 907.8 552.3 906.3 556.7 900.7 561.3 895.3 566.3 890.1 567.5 888.8 565.4 886.6 564.1 888L564.1 888zM578.2 889.5C578.3 884.3 582.2 880.9 587.3 881 589.8 881 592.1 881.8 594.6 881.4 599.2 880.7 603.2 877.8 605.3 873.8 606.8 871.1 607.2 868 609.5 865.8 612 863.4 615.5 862.3 618.9 862 622 861.7 625.4 861.9 628.4 863 630.9 864 633.5 865.9 633.6 868.9 633.7 871.2 632.3 873.6 629.7 873.7 629.8 874.7 630 875.7 630.1 876.6 632.8 876.2 635.8 879.1 636.6 881.4 637 882.5 637.1 883.9 637 885 636.9 887.6 635.6 890.3 633.9 892.3 632.2 894.3 630 895.9 627.5 896.6 625.3 897.2 624.9 897.3 623.3 895.5 621.5 893.4 622.3 893 624.2 891.4 632.8 884.2 639.9 893.6 648.7 893.9 654.7 894.1 660.4 890.4 661.6 884.3 662.2 881.3 661.3 878.6 659.8 875.9 658.1 872.9 657.1 872.3 657.8 868.6 657.3 866.4 658 865.3 659.9 865.3 661 864.8 662 864.8 663 865.5 665.4 866.2 666.8 867.8 668.3 869.8 669.4 871.3 672 869.9 670.9 868.3 667.8 864 662.4 859.9 657 863.1 651.9 866.1 653.7 871.4 656.2 875.5 658.8 879.9 660.6 884.5 656 888.5 650.8 893 644.9 890 639.8 887.5 634.6 885 628.8 884.7 623.8 888 620.8 889.9 616.4 894.9 619.7 898.5 623.3 902.3 630.8 899.1 634 896.5 638.1 893.2 640.8 887.7 640 882.3 639.1 876.9 634.9 872.7 629.4 873.6 627.7 873.9 628.1 876.6 629.8 876.5 635.9 876.4 638.5 869 635.3 864.3 630.9 857.8 619.9 857.7 613.3 860.1 610 861.3 607.1 863.4 605.3 866.5 604 868.7 603.6 871.4 602.2 873.5 600 876.7 596.1 878.6 592.2 878.6 587.6 878.5 584 877.2 580 880.2 576.9 882.5 575.4 885.9 575.4 889.6 575.2 891.5 578.2 891.5 578.2 889.5L578.2 889.5z" class="color161616 svgShape"></path><path fill="#1c7042" d="M738 326.6C737.8 350.5 737.5 374.3 737.3 398.2 793.5 396.6 849.7 394.9 905.8 393.3 917.3 402.2 928.7 411.1 940.2 420 937.2 402.4 934.1 384.9 931.1 367.3 930.2 352.8 929.2 338.3 928.3 323.8 864.9 324.7 801.4 325.7 738 326.6L738 326.6zM731.9 149.2C730 183.8 728.1 218.3 726.3 252.9 716.4 265.2 706.5 277.6 696.6 289.9 708.4 286.7 720.2 283.5 732 280.3 802.2 277.9 872.4 275.5 942.6 273.1 940.7 231.6 938.8 190 937 148.5 868.5 148.7 800.2 148.9 731.9 149.2L731.9 149.2z" class="colorE5261F svgShape"></path><path fill="#ffffff" d="M849.8,195.2 C851.2,220.1 869.1,240.6 893.6,245.2 C895.5,245.5 896.3,242.7 894.4,242.3 C871.2,238 854.1,218.8 852.8,195.2 C852.6,193.2 849.6,193.2 849.8,195.2 L849.8,195.2 Z" class="colorFFF svgShape"></path><path fill="#ffffff" d="M894.3,245.1 C903.9,245.8 912.5,231.7 916,224.3 C920.6,214.3 922,203.3 919.9,192.6 C919.5,190.7 916.6,191.5 917,193.4 C918.8,202.7 917.8,212.2 914.2,221 C912.4,225.3 910.1,229.4 907.1,233 C904.2,236.6 899.4,242.5 894.3,242.1 C892.4,241.9 892.4,244.9 894.3,245.1 L894.3,245.1 Z" class="colorFFF svgShape"></path><path fill="#ffffff" d="M902.7,242 C906.7,246.9 912.1,250.3 918.2,252 C920.1,252.5 920.9,249.6 919,249.1 C913.3,247.5 908.5,244.4 904.8,239.9 C903.6,238.4 901.5,240.6 902.7,242 L902.7,242 Z" class="colorFFF svgShape"></path><path fill="#ffffff" d="M915.3,222.7 C916.5,224.6 917.8,226.4 919.3,228.1 C920.7,229.6 923.2,230.9 924.4,232.5 C927.9,237.2 921.2,246.3 918.3,249.9 C917.1,251.4 919.7,252.9 920.9,251.4 C924.2,247.1 928.8,239.9 928.6,234.1 C928.5,232.5 927.9,231.6 926.8,230.5 C923.6,227.1 920.4,225.2 917.8,221.1 C916.8,219.5 914.2,221 915.3,222.7 L915.3,222.7 Z" class="colorFFF svgShape"></path><path fill="#ffffff" d="M913.4 225.7C912.9 230.5 911.7 235.1 909.6 239.5 909.3 240.2 908.6 241.1 908.4 241.8 907.9 243.6 909.2 240.7 909.5 240.3 910.7 238.2 911.7 236 912.7 233.9 911.8 233.5 910.9 233.1 910 232.7 909.1 235.6 907.6 237.8 905.2 239.8 906 240.4 906.8 241 907.6 241.6 909.7 238.1 911.7 234.6 913.8 231 914.8 229.3 912.3 228 911.2 229.5 909 232.5 906.8 235.5 904.6 238.4 903.6 239.8 905.8 241.5 907 240.2 909.4 237.4 911.2 234.4 912.4 231 913.1 229.2 910.2 228.4 909.5 230.2 908.4 233.2 906.9 235.7 904.8 238.1 905.6 238.7 906.4 239.3 907.2 239.9 909.4 236.9 911.6 233.9 913.8 231 912.9 230.5 912.1 230 911.2 229.5 909.1 233 907.1 236.5 905 240.1 904.1 241.7 906.1 242.9 907.4 241.9 910.2 239.7 912 236.9 913 233.5 913.5 231.9 911 230.8 910.3 232.3 909.2 234.4 908.1 236.6 907.1 238.7 906.5 239.9 905.5 241.4 905.7 242.8 905.8 244.5 907.5 246 909.3 245.4 911.7 244.6 912.9 240.2 913.7 238.1 915.3 234.1 916.2 229.9 916.7 225.6 916.6 223.8 913.6 223.8 913.4 225.7L913.4 225.7zM885.6 240.6C877.3 239.3 870.3 244.7 864.7 250.3 858.5 256.5 853.9 264 852.3 272.6 851.9 274.5 854.8 275.3 855.2 273.4 856.5 266.3 859.9 260.1 864.7 254.7 869.5 249.2 876.9 242.2 884.8 243.5 886.7 243.8 887.5 240.9 885.6 240.6L885.6 240.6zM875.6 198.7C878.7 206.8 882.2 214.8 885.9 222.6 886.5 223.8 888.3 223.4 888.6 222.2 889.5 218.6 889.9 215.1 889.7 211.4 889.6 209.5 886.6 209.5 886.7 211.4 886.9 214.8 886.6 218.1 885.7 221.4 886.6 221.3 887.5 221.2 888.4 221 884.8 213.4 881.4 205.7 878.4 197.8 877.8 196.1 874.9 196.9 875.6 198.7L875.6 198.7zM861.7 209.6C861 208.3 862.3 206.9 863.5 206.5 865.3 205.9 867.2 206.6 869 207.1 870.8 207.7 871.6 204.8 869.8 204.2 866.9 203.3 863.4 202.6 860.8 204.6 858.8 206.2 857.9 208.8 859.2 211.1 860 212.8 862.6 211.3 861.7 209.6L861.7 209.6zM893.1 202.8C894.1 198.4 899 196.5 902.5 199.7 903.9 201 906.1 198.9 904.6 197.6 899.6 193 891.7 195.3 890.2 202 889.8 203.9 892.7 204.7 893.1 202.8L893.1 202.8zM899.5 206.1C899.4 206.2 899.2 206.4 899.1 206.5 898.5 207.1 898.5 208 899.1 208.6 899.7 209.2 900.6 209.2 901.2 208.6 901.3 208.5 901.5 208.3 901.6 208.2 902.2 207.6 902.2 206.7 901.6 206.1 901 205.5 900.1 205.5 899.5 206.1zM906.2 203.3C906.3 203.6 906.5 203.8 906.6 204.1 907 204.8 908 205 908.7 204.6 909.4 204.2 909.6 203.3 909.2 202.5 909.1 202.2 908.9 202 908.8 201.7 908.4 201 907.4 200.8 906.7 201.2 906 201.6 905.8 202.5 906.2 203.3zM905.3 210.1C905.4 210.2 905.6 210.4 905.7 210.5 906.3 211.1 907.2 211.1 907.8 210.5 908.4 209.9 908.4 209 907.8 208.4 907.7 208.3 907.5 208.1 907.4 208 906.8 207.4 905.9 207.4 905.3 208 904.7 208.6 904.7 209.5 905.3 210.1zM864 216.8L864 217.2C864 218 864.7 218.7 865.5 218.7 866.3 218.7 867 218 867 217.2 867 217.1 867 216.9 867 216.8 867 216 866.3 215.3 865.5 215.3 864.6 215.3 864 215.9 864 216.8zM870.8 214C870.3 214 869.9 214 869.4 214 870 214.5 870.9 214.6 871.5 214 872.1 213.4 872.1 212.4 871.5 211.9 870.6 211.1 869.5 211.1 868.6 211.9 868 212.4 868.1 213.5 868.6 214 869.3 214.6 870.2 214.5 870.8 214L870.8 214zM872.4 219.1C872.4 219 872.4 218.8 872.4 218.7 872.4 217.9 871.7 217.2 870.9 217.2 870.1 217.2 869.4 217.9 869.4 218.7L869.4 219.1C869.4 219.9 870.1 220.6 870.9 220.6 871.7 220.5 872.4 219.9 872.4 219.1zM865.1 192.2C862.6 190.6 859.4 191.4 857.6 193.7 857.1 194.3 857.5 195.4 858.1 195.8 858.9 196.3 859.7 195.9 860.2 195.3 861 194.3 862.5 194.2 863.5 194.9 865.3 195.8 866.8 193.2 865.1 192.2L865.1 192.2zM889 188.8C890.2 188.3 891.5 188 892.9 187.9 894.8 187.8 894.8 184.8 892.9 184.9 891 185 889.2 185.4 887.5 186.2 886.8 186.5 886.6 187.6 887 188.3 887.4 189 888.2 189.1 889 188.8L889 188.8zM889.7 230.8C894.1 231.2 898.2 228.3 899.6 224.1 900.2 222.3 897.3 221.5 896.7 223.3 895.7 226.3 892.8 228.1 889.7 227.8 887.8 227.6 887.8 230.6 889.7 230.8zM928.3 234.4C931.6 234.2 934.7 234.9 937.6 236.5 939.3 237.4 940.8 234.8 939.1 233.9 935.7 232.1 932.1 231.2 928.3 231.4 926.4 231.5 926.4 234.5 928.3 234.4zM854.3 162.4C845.9 166.2 839.4 173.6 837.1 182.6 835.7 188.1 836.7 193.5 836.5 199.1 836.2 205.4 833.3 211 831.4 216.9 825.9 234 835.3 252.8 852.7 258 854.6 258.5 855.3 255.7 853.5 255.1 845.2 252.6 838.5 246.5 835 238.6 831.2 229.9 832.7 221.7 835.9 213.1 837.3 209.4 838.7 205.7 839.2 201.7 839.8 196.9 838.8 192.1 839.3 187.3 840.2 177.4 846.9 169 855.8 165 857.5 164.2 856 161.7 854.3 162.4L854.3 162.4z" class="colorFFF svgShape"></path><path fill="#ffffff" d="M852 195C862.7 190 870.7 181.3 874.9 170.3 875.6 168.5 872.7 167.7 872 169.5 868.1 179.7 860.4 187.8 850.5 192.4 848.7 193.2 850.3 195.8 852 195zM876.2 169.7C879.5 175.5 886.4 178.1 892.5 180.1 900.2 182.7 908.3 183.8 916.4 183.7 918.3 183.7 918.3 180.7 916.4 180.7 909.7 180.8 903.1 180 896.7 178.2 890.5 176.5 882.2 174.1 878.8 168.1 877.9 166.5 875.3 168 876.2 169.7L876.2 169.7z" class="colorFFF svgShape"></path><path fill="#ffffff" d="M917.1,185.4 C919.4,181.3 925.3,181.8 926.7,186.5 C928.1,191.1 924.3,194.9 919.9,195.4 C918,195.6 918,198.6 919.9,198.4 C926.6,197.6 932.2,191.3 929.1,184.5 C926.2,178.3 917.8,178.2 914.5,184 C913.6,185.5 916.1,187 917.1,185.4 L917.1,185.4 Z" class="colorFFF svgShape"></path><path fill="#ffffff" d="M919 196.5C916.8 209.3 918.1 226.6 929.1 235.3 930.6 236.5 932.7 234.4 931.2 233.2 921.2 225.3 919.8 209.2 921.9 197.4 922.3 195.4 919.4 194.6 919 196.5L919 196.5zM853.8 165.8C860.4 162.4 867.4 158.7 875 158.8 881.5 158.9 886.9 161.9 893.5 160.7 900.4 159.5 906.7 156.3 913.9 155.9 921.3 155.5 929.3 156.7 934.5 162.4 935.8 163.8 937.9 161.7 936.6 160.3 926.5 149.3 910.3 153 897.8 156.6 892.8 158.1 888.4 158.5 883.3 157.2 879.7 156.3 876.4 155.6 872.6 155.9 865.4 156.6 858.7 159.9 852.4 163.2 850.6 164.1 852.1 166.7 853.8 165.8zM852.7 255.4C852.4 255.5 852 255.6 851.7 255.6 850.1 256 850.4 258 851.7 258.5 854.1 259.5 856.6 259.8 859.2 259.5 861.1 259.3 861.1 256.3 859.2 256.5 856.9 256.8 854.7 256.5 852.5 255.6L852.5 258.5C852.8 258.4 853.2 258.3 853.5 258.3 855.3 257.9 854.5 255 852.7 255.4zM749.9 185.7C751.4 188 755 187.5 755.5 184.7 755.7 183.8 754.3 183.4 754.1 184.3 753.8 185.7 752.1 186.2 751.2 185 750.7 184.2 749.4 184.9 749.9 185.7L749.9 185.7zM761.4 184.6C762 185.6 762.7 186.7 764 186.9 765.1 187.1 766.1 186.6 766.5 185.5 766.8 184.6 765.4 184.2 765.1 185.1 764.9 185.5 764.3 185.4 764 185.2 763.5 184.9 763.2 184.3 762.9 183.7 762.2 183 760.9 183.7 761.4 184.6L761.4 184.6zM758.2 187.3C758.3 187.5 758.4 187.7 758.5 187.9L758.5 187.8C758.4 188 758.4 188.2 758.3 188.3 758.3 188.3 758.3 188.2 758.4 188.2 758.2 188.3 758 188.3 757.9 188.4L758 188.4C757.8 188.3 757.6 188.2 757.4 188 757.2 187.7 757.1 188.3 757.1 188.5 757.1 188.9 757.2 189.4 757.2 189.8 757.2 190.2 757.2 190.6 757 190.9 756.9 191.1 756.5 191.4 756.3 191.2 755.6 190.6 754.5 191.6 755.2 192.3 755.9 192.9 756.7 192.9 757.5 192.4 758.3 191.9 758.6 191 758.6 190 758.6 189.3 758.5 188.8 758.7 188.2 758.8 187.8 758.8 187.5 758.6 187.2 758 186.4 757.1 187 757 187.8 757 188 757.2 188.3 757.4 188.4L757.5 188.4C758.3 189.1 759.1 187.8 758.2 187.3L758.2 187.3z" class="colorFFF svgShape"></path><path fill="#ffffff" d="M757.5 187.9C757.8 189.3 757.4 190.8 758.5 192 759.3 192.9 760.5 193.1 761.5 192.3 762.2 191.7 761.2 190.6 760.4 191.2 759.8 191.7 759.2 190.2 759.2 189.9 759.1 189.1 759.1 188.3 759 187.5 758.7 186.6 757.3 187 757.5 187.9L757.5 187.9zM751.7 180.8L753.9 180.8C754.9 180.8 754.9 179.3 753.9 179.3 753.2 179.3 752.4 179.3 751.7 179.3 750.7 179.3 750.7 180.8 751.7 180.8zM762.6 181.1C763.3 181.1 763.9 181.2 764.5 181.6 765.3 182.1 766.1 180.8 765.3 180.3 764.5 179.8 763.6 179.6 762.7 179.6 761.6 179.6 761.6 181.1 762.6 181.1L762.6 181.1z" class="colorFFF svgShape"></path><path fill="#ffffff" d="M757.6,197.9 C747.8,198.5 748.7,188.1 746.4,181.7 C745.8,179.8 744.7,178.2 744,176.3 C741.4,168.9 747.1,174.1 749,176.8 C749.6,177.6 750.9,176.8 750.3,176 C749.2,174.4 745.2,168.5 742.8,169.2 C740.3,169.9 741.9,175.2 742.5,176.7 C743.6,179.7 745.1,182.1 745.7,185.3 C746.2,188.2 746.3,191.2 747.8,193.8 C749.8,197.4 753.4,199.6 757.5,199.3 C758.5,199.4 758.5,197.9 757.6,197.9 L757.6,197.9 Z" class="colorFFF svgShape"></path><path fill="#ffffff" d="M750.7 177.3C755.5 174.7 760.5 174.5 765.4 176.8 765.8 177 766.2 176.9 766.4 176.5 767.7 174.1 769.3 172.3 771.5 170.7 771.1 170.5 770.6 170.3 770.2 170.2 770.4 175.7 770.6 181.5 769.7 186.9 768.4 194.5 763.4 197.3 756.2 198.2 755.3 198.3 755.2 199.8 756.2 199.7 762.1 198.9 767.5 197.5 770 191.6 772.7 185.2 772 177 771.7 170.2 771.7 169.5 770.9 169.3 770.4 169.7 769 170.8 767.4 173.7 765.9 174.5 764.2 175.4 762.2 174.1 760.3 173.9 756.6 173.5 753.1 174.4 749.8 176.1 749.1 176.5 749.8 177.8 750.7 177.3L750.7 177.3zM749.9 195.5C747.2 199.9 748.2 205.2 749 210.1 750.2 217.6 752.4 224.9 754.6 232.1 754.9 233 756.3 232.6 756 231.7 754.4 226.3 752.7 220.8 751.5 215.3 750.2 209.6 747.9 201.6 751.2 196.3 751.7 195.5 750.4 194.7 749.9 195.5L749.9 195.5z" class="colorFFF svgShape"></path><path fill="#ffffff" d="M754.5 231.5C752.6 231.8 746.5 233.8 748.4 236.8 749.1 237.9 750.6 238.1 751.8 238.2 754.1 238.4 756.4 238 758.6 237.3 759.5 237 759.1 235.6 758.2 235.9 756.2 236.5 753 237.5 750.9 236.7 750.5 236.5 749.7 235.8 749.9 235.3 750 235 750.9 234.6 751.3 234.4 752.5 233.8 753.7 233.3 755 233.1 755.9 232.7 755.5 231.3 754.5 231.5L754.5 231.5zM758.9 208.3C759.6 216.5 760.5 224.6 761.7 232.8 761.8 233.8 763.3 233.3 763.1 232.4 761.9 224.4 761 216.4 760.3 208.3 760.4 207.3 758.9 207.3 758.9 208.3z" class="colorFFF svgShape"></path><path fill="#ffffff" d="M762.3 232.2C760.1 232.5 756.2 234.4 758.2 237.3 760.4 240.4 766.6 237.8 769.2 236.8 770.1 236.5 769.7 235 768.8 235.4 767.1 236.1 765.4 236.7 763.6 237 762.8 237.1 761.3 237.4 760.5 237 759.2 235.5 759.3 234.5 760.8 234.1 761.3 233.9 761.8 233.8 762.3 233.8 763.2 233.6 763.2 232.1 762.3 232.2L762.3 232.2zM769.5 191.6C773.5 194 774.4 198.1 776.2 202.1 777.5 205 779.1 207 781.5 209.1 785 212.1 788.2 214.4 789.5 219.2 790.8 224.2 789.7 229.4 788.3 234.2 788 235.1 789.5 235.5 789.7 234.6 792.1 226.3 793 217.2 786 210.8 784.4 209.3 782.5 208.1 781 206.6 778.8 204.3 777.7 201.7 776.6 198.8 775.2 195.3 773.7 192.3 770.4 190.3 769.4 189.8 768.7 191.1 769.5 191.6L769.5 191.6z" class="colorFFF svgShape"></path><path fill="#ffffff" d="M781.5 216.7C778.2 216.2 775.5 219 774.5 222.1 773.1 226.3 776.7 230.5 779.1 233.5 779.3 233.1 779.5 232.6 779.6 232.2 776.4 232.5 773.8 233.5 771.2 235.4 770.9 235.6 770.7 236.1 770.9 236.4 773.4 239.6 779.1 238.2 782.6 238.2 786.3 238.1 790 237.8 789.9 233.1 789.9 232.1 788.4 232.1 788.4 233.1 788.5 237.9 779 236.8 776.4 236.8 775.8 236.8 775.3 236.8 774.7 236.8 772.8 236.5 772.4 236.1 773.5 235.6 774 234.3 778.5 233.8 779.6 233.7 780.3 233.6 780.5 232.9 780.1 232.4 778.8 230.7 777 228.7 776.3 226.6 775.3 223.9 776.5 217.4 781.1 218.1 782.1 218.3 782.5 216.9 781.5 216.7L781.5 216.7zM768.1 223.6C768.5 227.6 768.7 231.6 768.8 235.6 768.8 236.6 770.3 236.6 770.3 235.6 770.2 231.6 770 227.6 769.6 223.6 769.5 222.7 768 222.7 768.1 223.6z" class="colorFFF svgShape"></path><path fill="#ffffff" d="M769.7 232.8C772.8 234.3 776.1 234.6 779.3 233.6 780.2 233.3 779.8 231.9 778.9 232.2 776 233 773.1 232.8 770.4 231.5 769.6 231.1 768.8 232.4 769.7 232.8L769.7 232.8zM790.8 227.9C793.6 226 795.6 223.5 796.3 220.1 797.4 214.7 794 209.7 796.4 204.4 798.3 200.3 801.5 197.2 802.4 192.7 803.4 187.6 801.4 182.4 802.6 177.3 802.9 176.1 803.3 174.5 804.2 173.5 805.1 171.5 806.5 172 808.2 175.1 808 175.6 807.8 176.1 807.6 176.6 807.3 179.1 805.4 181.7 804.9 184.3 804.5 186.6 804.7 188.9 804.4 191.2 804 194.5 802.4 197.1 800.9 200.1 798.8 204.4 799.2 208.2 799.4 212.9 799.7 220 796.9 225.9 790.5 229.3 789.6 229.8 790.4 231.1 791.3 230.6 795.5 228.3 798.8 224.8 800.2 220.2 802.4 213.2 799.4 206.5 802.9 199.6 804.2 196.9 805.5 194.6 805.9 191.6 806.4 188.1 806.1 185.1 807.2 181.6 808 179.1 812.5 172.3 809.1 169.9 806.9 168.4 804 171 802.9 172.6 799.9 176.8 800.8 182.2 801 187.1 801.2 191.6 800.4 195.1 798 198.9 796.7 200.9 795.3 202.9 794.5 205.2 791.8 213 798.8 220.7 790.1 226.7 789.3 227.2 790 228.5 790.8 227.9zM824.7 254C821.2 253.3 818.1 254.4 815.3 256.6 813.3 258.1 810.7 260.3 811.1 263.1 812.3 270.4 823.8 266.1 827.4 263.7 829 262.6 827.5 260 825.9 261.1 824.4 262.1 822.9 262.9 821.2 263.4 820.1 263.7 819 264 817.9 264 816.4 264.1 815.8 264.2 815 262.7 814.2 261.2 814.6 261.2 815.7 260.1 816.4 259.4 817.1 258.9 817.9 258.3 819.7 257.1 821.7 256.4 823.9 256.8 825.8 257.3 826.6 254.4 824.7 254z" class="colorFFF svgShape"></path><path fill="#ffffff" d="M821.7,253.1 C821.1,248.6 819.8,244.3 817.5,240.3 C816,237.7 812.7,232 809.2,231.6 C801.6,230.7 809.8,250.6 811.1,253.3 C812,255 814.5,253.5 813.7,251.8 C812.2,248.7 811,245.6 810.2,242.3 C809.8,240.6 809,238.1 809.2,236.5 C809.2,236 809.1,235.6 809.1,235.1 C809.9,235.5 810.6,236.1 811.2,236.8 C815.4,241.1 817.9,247.2 818.7,253.1 C819,254.9 822,255 821.7,253.1 Z" class="colorFFF svgShape"></path><path fill="#ffffff" d="M813.8,251.7 C811.6,247.5 802.5,233.3 796.3,238.8 C790.1,244.3 801.2,256.2 805.1,259.8 C806.5,261.1 808.6,259 807.2,257.7 C805.1,255.7 803.1,253.6 801.5,251.3 C800.6,250 796.2,243.5 797.7,242.1 L801.3,241.5 C802.2,242.1 803,242.8 803.8,243.5 C804.7,244.3 805.6,245.3 806.5,246.2 C808.4,248.3 809.9,250.7 811.2,253.2 C812.1,255 814.7,253.5 813.8,251.7 L813.8,251.7 Z" class="colorFFF svgShape"></path><path fill="#ffffff" d="M804.9,258.6 C801.5,255.8 796.5,258.6 796.8,262.9 C797.2,268.7 803.7,269.9 808.2,268.6 C810.1,268.1 809.3,265.2 807.4,265.7 C805,266.4 801.7,266.6 800.2,264 C799.6,263 799.5,261.8 800.4,261 C801,260.4 802.1,260.1 802.8,260.7 C804.2,262 806.3,259.9 804.9,258.6 Z" class="colorFFF svgShape"></path><path fill="#ffffff" d="M798.4 262.9C794.2 264.2 794.2 269.2 796.6 272.2 799 275.2 803.6 277.2 807 274.6 808.5 273.4 806.4 271.3 804.9 272.5 803.3 273.7 800.7 272.1 799.6 271 798.4 269.8 796.8 266.6 799.3 265.8 801.1 265.2 800.3 262.3 798.4 262.9L798.4 262.9zM823 254.2C830.3 254.2 832.5 267.9 831.1 273 830.6 274.9 833.5 275.7 834 273.8 836 266.6 832.6 251.2 823 251.2 821 251.2 821 254.2 823 254.2z" class="colorFFF svgShape"></path><path fill="#e8e8e8" d="M751.6 358.4L855.1 358.4C857 358.4 857 355.4 855.1 355.4 820.6 355.4 786.1 355.4 751.6 355.4 749.7 355.4 749.7 358.4 751.6 358.4zM778.1 371.8L873.4 371.8C875.3 371.8 875.3 368.8 873.4 368.8 841.6 368.8 809.8 368.8 778.1 368.8 776.2 368.8 776.2 371.8 778.1 371.8zM867.6 357.9L879.6 357.9C881.5 357.9 881.5 354.9 879.6 354.9 875.6 354.9 871.6 354.9 867.6 354.9 865.7 354.9 865.7 357.9 867.6 357.9zM901.7 366.9C898 365.2 895.2 362.2 894.2 358.2 893.7 356.3 893.3 353.5 894.6 351.8 897.1 348.3 900.1 353.1 900.9 355.6 901.3 356.9 903.5 357.1 903.8 355.6 903.9 354.9 904.1 354.2 904.3 353.5 905.1 350.5 907 350.8 910.1 354.2 910.6 356 909.4 359 908.6 360.5 906.9 363.9 904.1 366.3 900.7 368 899 368.8 900.5 371.4 902.2 370.6 908.6 367.6 915.6 358.8 912.4 351.3 911.4 349 909 347.2 906.4 347.6 902.9 348.1 901.4 351.8 900.8 354.8L903.7 354.8C902 349.3 894.8 342.9 891.5 351 888.6 358.1 893.8 366.5 900.2 369.5 901.9 370.3 903.4 367.7 901.7 366.9L901.7 366.9z" class="colorE8E8E8 svgShape"></path><path fill="#161616" d="M481.7,734.3 C479.4,749.9 477.1,765.6 474.8,781.2 C432.5,794.1 411.8,802.5 412.6,806.2 C413.6,810.8 446.2,808.6 510.6,799.6 C511.5,777.2 512.5,754.9 513.4,732.5 C502.8,733.1 492.3,733.7 481.7,734.3 L481.7,734.3 Z" class="color161616 svgShape"></path><path fill="#ffffff" d="M502.2,591.2 C500.1,592.8 498.9,594.6 494.4,603.3 C490.8,610.2 489.1,613.7 487.9,616.3 C479.8,634.7 471.9,663.6 471.9,663.6 C465.6,686.5 462.4,697.9 460.2,710 C457,727.1 455.7,741.6 455,752.1 C460.9,754.8 468,757.5 476.3,759.5 C495.9,764.2 512.8,762.8 524,760.8 C526,746.7 528.8,731.4 532.7,715.3 C536.1,700.9 540,687.6 544,675.4 C548.3,678.1 554.6,682.3 562.2,687.5 C587.1,704.8 594.9,713.2 609.5,722.6 C619.1,728.8 633.3,736.6 652.9,742.6 C657.4,742 669.7,739.8 680.2,729.6 C696,714.1 694.4,693.1 694.1,690.1 C687.5,683.1 678.2,673.7 666.3,663.6 C645.3,645.8 627.2,634.9 614.3,627.2 C603.9,621 592.3,615.3 569.2,603.8 C569.2,603.8 542.1,590.4 517.2,588.2 C512.8,587.8 506.9,587.6 502.2,591.2 L502.2,591.2 Z" class="colorFFF svgShape"></path><path fill="#161616" d="M456.2,750.8 C458.8,724.6 463.6,698.7 470.5,673.4 C473.9,661 477.8,648.7 482.2,636.5 C486.6,624.4 491,611.7 497.2,600.3 C500.9,593.5 505.9,591.2 513.4,590.9 C520.2,590.6 527,591.5 533.6,593.1 C545.7,595.9 557.4,600.6 568.8,605.5 C590.4,614.7 611.2,626 630.7,639.2 C652.9,654.2 673.4,671.5 691.9,690.9 C693.2,692.3 695.4,690.2 694,688.8 C659,652.3 616.8,622.9 570.3,603 C558.9,598.1 547.3,593.5 535.2,590.5 C525.2,588.1 509.7,584.8 500.6,591.3 C496.7,594.1 494.5,598.6 492.5,602.9 C489.9,608.6 487.5,614.4 485.1,620.2 C479.8,633.3 475.1,646.6 471,660.2 C462.1,689.7 456.1,720.1 453.1,750.8 C453,752.7 456,752.7 456.2,750.8 L456.2,750.8 Z" class="color161616 svgShape"></path><path fill="#161616" d="M455.6,752.2 C476.2,763.8 500.4,767.1 523.4,761.4 C525.3,760.9 524.5,758 522.6,758.5 C500.4,764 477,760.9 457.1,749.6 C455.4,748.7 453.9,751.2 455.6,752.2 L455.6,752.2 Z" class="color161616 svgShape"></path><path fill="#161616" d="M526.4,759.2 C529.9,730.7 536.3,702.6 545.3,675.3 C545.9,673.5 543,672.7 542.4,674.5 C533.3,702.1 527,730.4 523.4,759.2 C523.2,761.1 526.2,761.1 526.4,759.2 L526.4,759.2 Z" class="color161616 svgShape"></path><path fill="#161616" d="M536,672.4 C576.1,692.8 606,732 651.1,742.5 C653,742.9 653.8,740 651.9,739.6 C607.1,729.1 577.3,690.1 537.5,669.8 C535.8,668.9 534.3,671.5 536,672.4 L536,672.4 Z" class="color161616 svgShape"></path><path fill="#6d6c6c" d="M490.2,762.4 C500.4,730 511.6,697 523.9,663.4 C526.8,655.4 529.8,647.5 532.8,639.6 C553.7,650.6 574.7,661.6 595.6,672.6 C624.8,688 654,703.5 683.2,719.1 C682.4,722.8 679.5,732.9 670.4,738.3 C663.6,742.3 656.1,742 648.1,740.4 C623.3,735.4 607.7,720.4 576.5,697.1 C569.4,691.8 558.5,683.8 544.6,674.4 C541.9,682 539.3,689.9 536.8,698.2 C530.1,720.6 525.8,741.7 523,761 C517.2,762.5 509.5,763.8 500.7,763.5 C496.8,763.3 493.3,762.9 490.2,762.4 L490.2,762.4 Z" opacity=".12" class="color6D6C6C svgShape"></path><path fill="#6d6c6c" d="M542,673.3 C539.5,672.3 529.4,691.1 526.4,696.7 C518.7,711 508.7,732.1 499.4,760.2 C501.3,761 503.7,761.9 506.5,762.3 C513.9,763.6 519.9,761.8 523.2,760.5 C528.5,732.7 533.9,710.6 538.1,694.9 C540.7,685.1 543.8,674.1 542,673.3 Z" opacity=".12" class="color6D6C6C svgShape"></path><path fill="#161616" d="M385.5,746.4 C378.7,764.2 371.8,782.1 365,799.9 C325.1,813.2 305.7,822 306.6,826.3 C307.7,831.3 336.3,830.3 392.4,823.2 C399.1,801.5 405.8,779.9 412.6,758.2 C403.5,754.3 394.5,750.4 385.5,746.4 Z" class="color161616 svgShape"></path><path fill="#ffffff" d="M442.8,572.5 C435.1,577.9 430.7,584.3 428.5,587.7 C418.9,602.2 414,609.5 410.7,615.9 C401.3,634 395.3,649.2 392.5,656.7 C383,681.8 378.2,702.2 373.8,720.5 C370.6,734.2 368.3,745.6 366.9,753.5 C370.9,758.3 376.6,764 384.2,769.1 C400.2,779.8 416.3,782.3 425,783 C432.3,761.9 439.2,744.1 445,730.1 C451.1,715.1 455.6,705.1 463.7,693.7 C469.5,685.4 475.2,679.2 479.3,675 C483.8,681.3 490.3,689.8 498.8,699.3 C509.3,711 528.5,732.1 559.5,750.5 C584.6,765.4 604.3,770.7 624.1,776.1 C644.7,781.7 651,781.1 655.8,778.3 C675.5,766.7 665.5,720.4 664.9,717.6 C645.6,702.8 631.3,689.7 621.5,680.3 C612.7,671.8 602.8,661.5 585.5,646 C580.9,641.9 576.1,637.6 569.5,632.1 C566.4,629.5 554.9,620.1 535.2,606.5 C535.2,606.5 510.2,589.2 485.8,576.6 C485.8,576.6 479.6,573.4 468.9,570.1 C460,567.4 456.3,567.2 452.9,567.9 C451.7,568 448.2,568.8 442.8,572.5 L442.8,572.5 Z" class="colorFFF svgShape"></path><path fill="#161616" d="M439.9,572.8 C395.8,621.8 377.2,687 365,750.3 C364.6,752.2 367.5,753 367.9,751.1 C380,688.3 398.3,623.5 442,574.9 C443.4,573.5 441.2,571.3 439.9,572.8 L439.9,572.8 Z" class="color161616 svgShape"></path><path fill="#161616" d="M366,753.8 C380.6,770.7 400.7,782 422.7,785.6 C424.6,785.9 425.4,783 423.5,782.7 C401.9,779.2 382.4,768.2 368.1,751.7 C366.9,750.2 364.8,752.3 366,753.8 Z" class="color161616 svgShape"></path><path fill="#161616" d="M425.6,784.2 C432,764.3 439.6,744.9 448.6,726 C456.8,708.9 465.2,689.2 479.9,676.6 C481.4,675.3 479.2,673.2 477.8,674.5 C462.9,687.3 454.3,707.2 446.1,724.5 C437,743.6 429.3,763.3 422.8,783.4 C422.1,785.2 425,786 425.6,784.2 L425.6,784.2 Z" class="color161616 svgShape"></path><path fill="#161616" d="M469.3 663.8C510.4 720.4 566.4 771.2 638.4 780.8 640.3 781.1 640.3 778.1 638.4 777.8 567.6 768.4 512.4 718 471.9 662.3 470.7 660.8 468.1 662.3 469.3 663.8zM442.4 574.8C458.9 562.7 479.9 576.1 495.1 584.3 510.8 592.7 525.9 602 540.6 612.1 570.2 632.6 597.5 656.4 621.9 682.9 623.2 684.3 625.3 682.2 624 680.8 583.8 637.1 535.5 600.4 482.1 574.3 469.3 568 453.6 563 440.9 572.3 439.4 573.3 440.9 575.9 442.4 574.8L442.4 574.8z" class="color161616 svgShape"></path><path fill="#6d6c6c" d="M389.6,769.2 C396.2,755.6 407.8,731.6 422.1,701.3 C449.6,643.4 454.2,632.2 466.8,627.9 C488.6,620.6 509.3,642.5 557.2,676.7 C584,695.9 620.9,720 668,744.3 C668.9,749.5 670.8,763.7 662.5,772.7 C658.8,776.6 650.4,782.6 624.4,778.2 C614.4,776.5 567.6,767.6 510.8,711 C496.5,696.8 485.9,683.8 478.9,674.6 C476,678 471.6,683.5 466.8,690.5 C458.4,702.9 452.8,714.2 439.8,745.5 C435.6,755.5 430.4,768.3 424.6,783.2 C420.8,783.4 413.6,783.4 405.6,780.1 C397.4,777 392.2,772 389.6,769.2 Z" opacity=".13" class="color6D6C6C svgShape"></path><path fill="#6d6c6c" d="M471 661.2C474.9 663.2 480.6 666.2 487.3 670.2 529.6 695.4 530.6 710.7 562.1 729.4 586.6 743.9 595.8 740.5 621 759.5 630.8 766.9 638.1 774 642.8 778.9 633.1 778.1 619.7 776.1 604.4 771.3 584.4 765 570.6 756.7 560.4 750.5 555.3 747.4 534.1 734.3 510.9 711 499.3 699.5 484.8 683.1 471 661.2L471 661.2zM475.5 675C474.1 673.2 463.6 677.7 454.4 684.7 437.8 697.2 433.1 711.7 417.7 740.1 413.2 748.4 406.4 760.5 397.3 774.7 406.2 778.3 415.1 781.9 424 785.4 426 780 441.3 739.1 452.7 714.4 456.4 706.5 458.4 702.1 462 696.1 470 682.9 476.8 676.7 475.5 675L475.5 675z" opacity=".12" class="color6D6C6C svgShape"></path><path fill="#ffffff" d="M890.5,503.3 C893.1,504.7 893,506.2 896.3,509 C899,511.3 900,511 901.1,512.9 C902.3,515 902.5,517.4 902.5,519 C903.6,519 905.6,519.3 907.7,520.8 C908.3,521.2 912.4,524.1 913.5,530.4 C914.3,534.7 913.3,538.3 912.8,539.6 C913.9,540.6 915.6,542.4 916.2,545.3 C917,548.9 915.9,552.2 914.5,555.8 C910.4,565.9 906.7,570.1 902.5,578.6 C901.2,581.1 899.5,585 897.7,590 C897.6,593.8 897.6,600 898.4,607.5 C899.6,618.7 901.8,626.8 902.5,629.4 C906,642.4 912.2,672.8 912.8,700.7 C913.1,715 913.4,737.9 903.5,761.3 C899.8,770.1 894.3,782.5 883.2,787.6 C881.4,788.4 868.5,794.3 859.5,785 C856.2,781.6 854.5,777.4 853.7,774.5 C853.5,773 853.3,770.7 853.4,767.9 C853.7,755.8 859.3,747.1 861.3,743.8 C868.1,732.3 870.2,719.5 873.7,697.8 C875.9,684.4 875.4,672.8 874.4,650 C873.7,634.4 872.2,613.3 868.9,588.2 C867.2,587.7 865,586.7 863.4,584.3 C861,580.6 862.4,577.2 860.6,570.7 C859.2,565.8 858.1,566.7 855.8,560.2 C854.1,555.5 852.5,551.2 853.4,546.2 C853.6,545.2 854.5,539.3 857.9,537.9 C862.2,536 867,542.8 868.2,544.5 C870.6,547.9 871.8,551.5 872.3,553.7 C874.7,549.7 877.2,544.9 879.5,539.2 C880.6,536.6 881.5,534.1 882.3,531.7 C881.9,529.5 881.4,526.3 881,522.4 C880.5,517.2 880.3,514.5 880.9,511.1 C881.3,508.8 882.3,503.7 885.4,502.3 C887.3,501.6 889.4,502.7 890.5,503.3 L890.5,503.3 Z" class="colorFFF svgShape"></path><path fill="#161616" d="M900.3,586.6 C905.2,577.8 911,569 915,559.7 C917.9,552.9 919.1,544.7 914.6,538.3 C913.5,536.7 910.9,538.2 912,539.8 C917.2,547.1 913.7,556.2 909.9,563.3 C905.9,570.6 901.8,577.8 897.7,585.1 C896.7,586.8 899.3,588.3 900.3,586.6 Z" class="color161616 svgShape"></path><path fill="#161616" d="M907.4,554.9 C914.7,545.2 920.6,521.8 903.6,518 C901.7,517.6 900.9,520.5 902.8,520.9 C917.6,524.2 910.9,545.2 904.8,553.4 C903.7,554.9 906.3,556.4 907.4,554.9 L907.4,554.9 Z" class="color161616 svgShape"></path><path fill="#161616" d="M899.5 546C906.4 536.1 906.9 522.5 901.6 511.8 900.7 510.1 898.2 511.6 899 513.3 903.8 523.1 903.2 535.5 896.9 544.5 895.8 546 898.4 547.5 899.5 546zM893.6 538.3C896.4 529.5 897.3 519.9 895.3 510.8 894.2 505.9 889.3 497.3 883.2 502 877.5 506.4 880.1 518.5 880.7 524.4 881.3 530.3 880.6 534.5 877.5 539.6 874.8 544 872.6 548.6 870.9 553.5 870.2 555.3 873.1 556.1 873.8 554.3 876.1 547.8 880.2 542.5 882.9 536.3 885.4 530.5 883.7 524.2 883.3 518.1 883.1 515.3 882.3 510.8 883.4 508.1 883.5 506 884.8 505.6 887.3 506.7 890.1 505.6 891.7 506.4 892 509.2 892.7 511.1 893 513.3 893.2 515.3 894 522.8 893.2 530.2 890.9 537.4 890.2 539.4 893 540.2 893.6 538.3L893.6 538.3z" class="color161616 svgShape"></path><path fill="#161616" d="M902.7 513.3C901.5 508.7 896.3 505 891.8 508.1 890.2 509.2 891.7 511.8 893.3 510.7 896.1 508.8 899 511.3 899.8 514.1 900.3 516 903.2 515.2 902.7 513.3zM872.7 551.1C871.1 545.2 867.2 537.7 860.6 536.5 854.3 535.3 852.1 541.4 851.9 546.5 851.4 556.1 856.5 562.7 859 571.5 861 578.6 860.4 585.7 867.6 589.9 869.3 590.9 870.8 588.3 869.1 587.3 863.7 584.2 863.5 578.8 862.4 573.3 861.6 568.9 859.5 565.2 857.7 561.1 855.6 556.4 853.3 549.1 855.1 544 855.2 543.5 855.3 543.1 855.4 542.6 857.7 541.9 860 541.1 862.2 540.4 863.5 540.8 865.1 542.9 866 543.9 867.9 546.3 869 548.9 869.7 551.9 870.3 553.8 873.2 553 872.7 551.1L872.7 551.1z" class="color161616 svgShape"></path><path fill="#161616" d="M867,588.4 C871.2,623.1 875.7,659.1 872.6,694 C871.1,710.5 867,725.8 860.4,740.9 C855,753.3 851.1,765 853.7,778.6 C854.1,780.5 857,779.7 856.6,777.8 C853.7,762.6 859.9,750.1 865.6,736.5 C871.6,722.4 874.6,707.4 875.8,692.2 C878.5,657.8 874.2,622.5 870.1,588.4 C869.7,586.5 866.7,586.5 867,588.4 L867,588.4 Z" class="color161616 svgShape"></path><path fill="#161616" d="M897.3,584 C894.9,590.9 896.1,598.6 896.9,605.7 C897.8,613.2 899,620.7 900.4,628.1 C903.5,644.4 907.4,660.5 909.5,677 C911.6,693.2 911.7,709.6 909.9,725.8 C908.1,741.9 905,759.5 896,773.3 C891.7,779.9 885.3,786.3 877.2,787.8 C868.5,789.5 860.6,784.3 856.5,776.8 C855.6,775.1 853,776.6 853.9,778.3 C859.7,788.8 871.6,794 882.9,789 C896.3,783.1 903.4,768.1 907.3,754.8 C917.6,719.8 914.7,683.3 907.6,648 C905.6,638 903.4,628 901.8,617.9 C900.9,612.5 900.2,607.1 899.6,601.7 C899.1,596 898.3,590 900.2,584.5 C900.9,583 898,582.2 897.3,584 L897.3,584 Z" class="color161616 svgShape"></path><path fill="#6d6c6c" d="M907.1,521.7 C907.4,526.7 907.4,533.1 906.2,540.1 C903,559.3 893.5,571.4 889.1,576.2 C889,581.9 888.8,590.7 889.1,601.3 C890.3,648.9 897.7,672.2 898.9,694.5 C900.1,716.2 896.1,747.9 871.1,788.9 C874.4,789.2 879.6,789.2 885,786.3 C889.9,783.7 897.5,777.7 904.4,757.6 C910.7,739.2 917.6,705.5 909.9,666.9 C906.5,650.1 901.3,636.9 898.6,608.7 C897.9,601.2 897.6,594.9 897.4,590.6 C899.1,586.6 901.6,581.1 905.2,575.1 C911.1,565.2 914.9,561.9 915.9,554.8 C916.6,549.8 915.6,544.7 913.6,539.7 C913.8,538.4 914.6,533.1 912.2,527.9 C910.6,524.2 908.2,522.4 907.1,521.7 L907.1,521.7 Z" opacity=".1" class="color6D6C6C svgShape"></path><path fill="#6d6c6c" d="M897,597.999265 C896.5,598.1 898.1,615.5 901.3,650.3 C904.2,681 905.6,696.3 905.6,697.5 C906.6,743.1 892.6,775.3 894.9,776.4 C896.5,777.2 904.5,761 909.1,741.4 C915.4,714.3 912.9,690.8 911.4,677.3 C910,665.4 909.5,668.7 902.4,628.3 C898.9,608 897.5,597.9 897,597.999265 L897,597.999265 Z" opacity=".11" class="color6D6C6C svgShape"></path><path fill="#d6d6d6" d="M650.7,692.5 C641.2,711.8 638.5,728.8 636,745.4 C634.6,754.5 633.2,767.4 633.3,783 C664.5,791.3 692.3,795.8 715.1,798.2 C744.7,801.4 736,797.5 810.7,800.1 C848,801.4 867.2,802.7 872.5,792.5 C876.9,783.9 866.1,775.3 865.5,755.5 C865,739.6 871.3,726.6 876.3,718.5 C846.8,706.6 812.7,694.8 774.3,684.8 C736.1,674.8 700.7,668.4 669.2,664.4 C664.2,670.3 657,679.7 650.7,692.5 Z" class="colorD6D6D6 svgShape"></path><path fill="#6d6c6c" d="M653.3,689.1 C660.6,703.7 676,728.7 704.7,742.7 C715.9,748.2 728.6,751.7 766,753.6 C790.2,754.8 823.8,755.4 864.5,752.1 C863.9,760.8 865.7,767 867.4,771.1 C870,777.2 873.6,780.7 873.2,787.1 C873.1,788.6 872.9,792.4 870.3,795.5 C866.7,799.7 860.8,800.1 857.9,800.2 C829.1,801.6 819.2,800.6 819.2,800.6 C795,798 773.5,798.6 755.7,799.1 C748,799.3 743.9,799.6 735.6,799.5 C731,799.4 718.3,799.1 699.9,796.6 C672.8,792.9 647.8,786.6 633.9,782.7 C633.6,764.8 635.2,750 636.8,739.3 C639.3,722.9 642.3,713.8 643.4,710.9 C646.6,701.7 650.3,694.3 653.3,689.1 L653.3,689.1 Z" opacity=".12" class="color6D6C6C svgShape"></path><path fill="#6d6c6c" d="M642.3,715.3 C646.2,723.2 652.9,734.4 664.2,744.8 C683.2,762.2 703.7,766.8 728,772.5 C779.5,784.7 832,798.6 831.6,800.9 C831.4,802.3 811.8,799.1 778,798.7 C769.8,798.6 764.5,798.5 756.8,798.7 C741.8,799 737.7,799.8 728.7,799.4 C719,799 711.9,797.6 704.3,796.1 C673.8,790 643.4,783.3 633.6,781.1 C633.7,774.7 634.1,768 634.7,761 C636.2,744.3 639,728.9 642.3,715.3 L642.3,715.3 Z" opacity=".1" class="color6D6C6C svgShape"></path><path fill="#ffffff" stroke="#161616" stroke-width="2" d="M934.3,773.7 C913.1,776.7 901,777.3 881.2,782.9 C872,785.5 864.6,788.2 859.7,790.2 C856.6,781.5 852.9,767.4 854.5,750.2 C855.4,740 857.9,731.5 860.5,725.1 C866,726.5 872.9,727.8 881,728.3 C891.1,728.9 899.7,728.1 906.2,727 C908.7,718 911.1,709.1 913.6,700.1 C918.1,698.9 922.7,697.6 927.2,696.4 C927.6,693.9 928.1,691.4 928.5,688.9 C934.1,691.5 943,695.7 954.1,700.4 C975,709.4 978,709.7 982.5,713.7 C994.6,724.6 1000.4,746.3 991.5,758.8 C986.1,766.3 968.8,768.8 934.3,773.7 Z" class="colorFFF svgShape colorStroke161616 svgStroke"></path><path fill="#161616" d="M926.8 688.7C926.1 693.4 925.8 698.1 926 702.9 926.1 704.8 929.1 704.8 929 702.9 928.8 698.4 929.1 694 929.7 689.5 929.9 687.6 927 686.8 926.8 688.7L926.8 688.7zM959.4 714.2C960.2 717.9 957.9 721.2 954.7 722.7 952.9 723.5 954.5 726.1 956.2 725.3 960.8 723.2 963.3 718.3 962.3 713.4 961.9 711.5 959 712.3 959.4 714.2L959.4 714.2zM948.1 713.2C949.2 713.3 950.4 713.6 951.3 714.4 951.5 714.6 951.7 714.8 951.9 715 952.5 714.5 952.6 714.2 952.1 714.3 951.8 714.1 951 714.1 950.7 714 950.2 713.8 949.7 713.7 949.2 713.4 948.9 713.3 948.7 713.1 948.4 712.9 947.6 713.4 947.5 713.8 948.2 714 948.6 714.4 949.4 714.8 949.9 715.1 950.5 715.5 951 715.8 951.6 716.2 953.2 717.2 954.4 715.1 953.4 713.8 952.8 713 952.1 712.6 951.2 712.2 949.4 711.5 948.6 714.4 950.4 715.1 950.8 715.3 951 715.6 951.3 715.9 951.9 715.1 952.5 714.3 953.1 713.5 951.7 712.6 950.4 711.6 949 710.9 947.9 710.3 946.5 710.5 945.8 711.6 944 714.3 947.9 716.2 949.9 716.8 951 717.1 952.3 717.4 953.4 717 954.6 716.6 955.2 715.3 954.8 714.1 954 711.5 950.5 710.4 948.1 710.2 946.1 710.1 946.2 713.1 948.1 713.2L948.1 713.2z" class="color161616 svgShape"></path><path fill="#1c7042" d="M977.4,709.6 C981.7,710.8 988.8,713.4 995.7,718.8 C998.1,720.7 1003.3,724.8 1006.4,730.7 C1012.3,741.9 1009.6,757.6 999.3,768 C989.2,778.1 973,781.7 957.9,777.2 C964.4,754.7 970.9,732.2 977.4,709.6 Z" class="colorE5261F svgShape"></path><path fill="#161616" d="M982.3,671.3 C972.9,706.1 963.5,740.9 954.1,775.7 C952.6,781.3 961.3,783.7 962.8,778.1 C972.2,743.3 981.6,708.5 991,673.7 C992.5,668.1 983.8,665.7 982.3,671.3 Z" class="color161616 svgShape"></path><path fill="#161616" stroke="#161616" stroke-width="2" d="M961.9,754.4 C960.3,747.8 956.1,743.6 951.2,738.7 C940.8,728.3 936.2,730.4 929.7,723.2 C919.5,711.7 927.6,702.5 917.5,692.1 C908.9,683.3 895.9,682.6 892.9,682.5 C890,682.4 878.3,682.3 869.3,690 C861.5,696.7 858.6,706.8 860,707.6 C860.5,707.9 862,707.2 866.8,702.1 C865.3,703.6 863.5,706 862.4,709.2 C861.2,713 861.4,716.7 862,716.8 C862.5,716.9 862.7,714.8 864.8,713.4 C866,712.6 867.4,712.3 868.4,712.3 C865.8,715.1 863.4,718.8 864.2,722.6 C866.2,733.2 890,738.1 897.9,739.7 C923.5,745 938.5,739.9 946.5,749.5 C947.2,750.3 950.4,754.2 949.2,757.8 C947.6,762.4 939.3,765 934.3,762.8 C930,760.9 929.4,756 928.5,756.2 C927.4,756.5 928,764.7 932.8,772.2 C934.6,774.9 936,777.1 938.9,778.6 C944,781.1 950.5,779.8 954.4,777.4 C962.7,772.7 963.7,761.6 961.9,754.4 L961.9,754.4 Z" class="color161616 svgShape colorStroke161616 svgStroke"></path><path fill="#6d6c6c" d="M927.3,759.5 C927.3,758 927.5,755.8 928.1,755.8 C928.4,755.8 928.7,756.4 928.7,756.3 C928.7,756.3 926.5,754.2 926.5,751.9 C926.5,750.8 927,749.9 927.4,749.4 C917.8,752.2 906.4,754.9 893.4,756.7 C879.1,758.7 866.3,759.2 855.4,759 C854.9,763.1 854.6,768.9 856,775.8 C857.1,781.4 859,786 860.7,789.4 C876.2,782.7 888.2,779.9 896.3,778.5 C900.1,777.9 909.1,776.5 913.5,775.9 C921.5,774.7 928.1,773.8 932.6,773.2 C932.1,772.5 931.3,771.4 930.5,770 C929.4,768.1 927.3,764.2 927.3,759.5 L927.3,759.5 Z" opacity=".22" class="color6D6C6C svgShape"></path><path fill="gray" d="M1009.2,744.3 C1006,753.2 997.3,759.1 987.8,759 C976.6,758.8 970,750.2 969.4,749.4 C966.8,759 964.3,768.7 961.7,778.3 C964.1,778.8 967.4,779.3 971.4,779.2 C984,778.9 992.6,773.2 994.4,771.9 C997.2,770 1006.4,763 1008.7,751.1 C1009.2,748.3 1009.2,745.9 1009.2,744.3 L1009.2,744.3 Z" opacity=".393" class="colorgray svgShape"></path><path fill="#ffffff" d="M830.9,539.1 C835.3,545.2 840.3,551.6 846.1,558.2 C853.9,567.1 861.6,574.6 868.8,580.9 C879.1,570.9 890,560.8 901.5,550.5 C912.4,540.7 923.2,531.5 933.8,522.8 C931.3,517.7 927.9,511.8 923.4,505.8 C914.6,494.1 904.9,486.3 897.5,481.3 C880.6,493.2 862.8,507.4 845.2,524.5 C840.2,529.5 835.5,534.3 830.9,539.1 L830.9,539.1 Z" class="colorFFF svgShape"></path><path fill="#161616" d="M851.2,521.8 C865.5,507.6 880.8,494.5 897.1,482.7 C898.6,481.6 897.2,479 895.6,480.1 C879.1,492.1 863.5,505.3 849.1,519.7 C847.7,521.1 849.8,523.2 851.2,521.8 Z" class="color161616 svgShape"></path><path fill="#161616" d="M896.4 482.1C910.8 493 922.9 506.5 932.3 521.9 933.3 523.5 935.9 522 934.9 520.4 925.2 504.5 912.7 490.8 897.9 479.5 896.4 478.4 894.9 481 896.4 482.1zM850.7 518.3C843.4 524.6 836.4 531.3 829.8 538.4 828.5 539.8 830.6 541.9 831.9 540.5 838.5 533.4 845.4 526.7 852.8 520.4 854.3 519.1 852.2 517 850.7 518.3z" class="color161616 svgShape"></path><path fill="#161616" d="M830.2,541.2 C841.6,555.2 853.8,568.4 866.9,580.9 C868.3,582.2 870.4,580.1 869,578.8 C856,566.3 843.7,553.1 832.3,539.1 C831.1,537.5 828.9,539.7 830.2,541.2 Z" class="color161616 svgShape"></path><path fill="#161616" d="M870.2 581.5C891.3 561.4 913 542 935.2 523.2 936.7 522 934.5 519.8 933.1 521.1 910.9 539.9 889.2 559.4 868.1 579.4 866.7 580.7 868.8 582.8 870.2 581.5zM842.6 540.2C849.4 549 856.5 557.6 863.8 565.9 865.1 567.4 867.2 565.2 865.9 563.8 858.6 555.4 851.5 546.8 844.7 538.1 843.6 536.5 841.5 538.7 842.6 540.2z" class="color161616 svgShape"></path><path fill="#161616" d="M844.8,540.2 C860,523.5 877.9,509.8 895.7,496.1 C897.2,494.9 895.7,492.3 894.2,493.5 C876.1,507.3 858,521.2 842.7,538 C841.3,539.5 843.5,541.6 844.8,540.2 Z" class="color161616 svgShape"></path><path fill="#161616" d="M896,496.1 C905.2,503 913.6,510.7 921.3,519.2 C922.6,520.6 924.7,518.5 923.4,517.1 C915.5,508.4 906.9,500.6 897.5,493.5 C895.9,492.4 894.4,495 896,496.1 Z" class="color161616 svgShape"></path><path fill="#161616" d="M865.6,566.7 C870.7,566.5 874.6,564 878.6,561 C883.8,557 888.9,552.9 893.9,548.6 C904.5,539.7 914.6,530.3 924.3,520.6 C925.7,519.2 923.5,517.1 922.2,518.5 C913.8,527 905,535.1 896,543 C891.6,546.8 887.1,550.5 882.6,554.2 C877.7,558.1 872.3,563.6 865.6,563.8 C863.7,563.7 863.7,566.7 865.6,566.7 L865.6,566.7 Z" class="color161616 svgShape"></path><path fill="#6d6c6c" d="M891.4,483 C889,487.5 885.5,494 881.4,501.9 C871.2,521.7 866,531.7 864.4,538 C862.3,546.2 860.7,560.6 869.2,580.9 C856.5,567.4 843.8,553.8 831.1,540.3 C851.2,521.2 871.3,502.1 891.4,483 L891.4,483 Z" opacity=".11" class="color6D6C6C svgShape"></path><path fill="#e8e8e8" d="M881,515.4 C885.8,520.3 890.3,525.5 894.5,530.9 C895.7,532.4 897.8,530.3 896.6,528.8 C892.4,523.4 887.9,518.2 883.1,513.3 C881.8,511.9 879.7,514 881,515.4 Z" class="colorE8E8E8 svgShape"></path><path fill="#e8e8e8" d="M882.2,515 C884.5,513.5 886.9,512.1 889.2,510.6 C890.4,509.8 891.7,508.6 893.1,508.2 C895,507.5 893.8,507.1 895.3,507.9 C897.1,508.8 899.1,512.7 900.4,514.3 C902.3,516.7 904.1,519 906,521.4 C907.2,522.9 909.3,520.8 908.1,519.3 C905.7,516.2 903.2,513.1 900.8,510 C899.6,508.4 897.7,504.6 895.6,504.1 C894.1,503.8 892.8,504.8 891.6,505.6 C887.9,507.8 884.3,510.2 880.7,512.4 C879.1,513.5 880.6,516.1 882.2,515 L882.2,515 Z" class="colorE8E8E8 svgShape"></path><path fill="#e8e8e8" d="M896.3 530.8C900.5 529 904.2 526.4 907.4 523.2 908.8 521.8 906.6 519.7 905.3 521.1 902.2 524.1 898.7 526.5 894.8 528.2 893 529 894.5 531.6 896.3 530.8zM889.5 520.7C890.8 519.4 892 518.1 894 518.4 895.1 518.6 895.5 518.8 896.7 518.6 897.7 518.4 898 517.2 897.6 516.4 896.7 514.9 895.9 517.4 895.9 518.3 895.9 519.1 896.2 520 896.8 520.6 898.3 522.2 900.5 521.8 902.3 521 904.1 520.3 903.3 517.4 901.5 518.1 900.8 518.4 900.1 518.6 899.3 518.7 899 518 899 517.3 899.3 516.6 899.3 515.9 899.4 515.3 899.2 514.6 898.9 513.6 898.1 512.7 897 512.6 893.8 512.2 893.8 516 895 518 895.3 517.3 895.6 516.5 895.9 515.8 895.1 515.9 894.1 515.3 893.3 515.3 892.7 515.3 892 515.5 891.4 515.7 889.8 516.3 888.6 517.5 887.5 518.7 886 520 888.2 522.1 889.5 520.7L889.5 520.7zM888 514.3C889.4 514.4 890.7 514.3 892 514 893.9 513.6 893.1 510.7 891.2 511.1 890.1 511.3 889.1 511.4 888 511.3 887.2 511.2 886.5 512 886.5 512.8 886.5 513.7 887.2 514.2 888 514.3L888 514.3zM865.1 528.7C869.7 534 874.3 539.2 879 544.3 880.3 545.7 882.4 543.6 881.1 542.2 876.4 537.1 871.7 531.9 867.2 526.6 866 525.1 863.9 527.2 865.1 528.7z" class="colorE8E8E8 svgShape"></path><path fill="#e8e8e8" d="M867.5,529.1 C868.5,527.3 869,525.8 871.1,525.7 C872.9,525.6 874,527 875.2,528.1 C876.9,529.6 878.3,531.4 880,533 C881.3,534.2 882.7,535.4 884.2,536.4 C885.5,537.3 886.7,537.8 885.3,539.5 C884.5,540.5 882.4,540.9 881.2,541.3 C879.4,541.9 880.2,544.8 882,544.2 C884.7,543.3 889,541.9 889.9,538.7 C890.3,537.4 890,536.8 889.1,535.9 C887.2,534.2 884.6,533.1 882.7,531.3 C879.5,528.4 876.7,524.1 872.6,522.4 C868.7,520.9 866.7,524.5 865,527.5 C864,529.2 866.6,530.8 867.5,529.1 Z" class="colorE8E8E8 svgShape"></path><path fill="#ffffff" d="M837,517.5 C833.6,518.9 833.8,520.4 829.5,523.2 C826,525.5 824.8,525.2 823.4,527.1 C821.8,529.2 821.6,531.6 821.6,533.2 C820.2,533.2 817.7,533.5 815,535 C814.2,535.4 809,538.3 807.5,544.6 C806.5,548.9 807.8,552.5 808.4,553.8 C807,554.8 804.9,556.6 804,559.5 C802.9,563.1 804.3,566.4 806.2,570 C811.4,580.1 816.1,584.3 821.5,592.8 C823.1,595.3 825.4,599.2 827.6,604.2 C827.7,608 827.7,614.2 826.7,621.7 C825.2,632.9 822.3,641 821.4,643.6 C816.9,656.6 809,687 808.2,714.9 C807.8,729.2 807.4,752.1 820,775.5 C824.7,784.3 831.7,796.7 845.9,801.8 C848.1,802.6 864.6,808.5 876.1,799.2 C880.3,795.8 882.4,791.6 883.6,788.7 C883.9,787.2 884.1,784.9 884,782.1 C883.6,770 876.4,761.3 873.9,758 C865.2,746.5 862.6,733.7 858.1,712 C855.3,698.6 855.9,687 857.2,664.2 C858.1,648.6 859.9,627.5 864.2,602.4 C866.3,601.9 869.2,600.9 871.2,598.5 C874.2,594.8 872.4,591.4 874.7,584.9 C876.4,580 877.8,580.9 880.8,574.4 C883,569.7 884.9,565.4 883.9,560.4 C883.7,559.4 882.4,553.5 878.2,552.1 C872.8,550.2 866.6,557 865.1,558.7 C862,562.1 860.6,565.7 859.8,567.9 C856.7,563.9 853.5,559.1 850.6,553.4 C849.3,550.8 848.1,548.3 847.1,545.9 C847.6,543.7 848.3,540.5 848.8,536.6 C849.4,531.4 849.7,528.7 848.9,525.3 C848.3,523 847.1,517.9 843.2,516.5 C841.1,515.7 838.4,516.8 837,517.5 L837,517.5 Z" class="colorFFF svgShape"></path><path fill="#161616" d="M827.5,599.2 C822.5,592.2 817.4,585.2 812.5,578.1 C807.8,571.3 802.3,561.7 809.1,554.2 C810.4,552.8 808.3,550.6 807,552.1 C801.7,557.9 802.3,565.8 805.6,572.5 C810.6,582.5 818.5,591.6 825,600.7 C826,602.3 828.6,600.8 827.5,599.2 Z" class="color161616 svgShape"></path><path fill="#161616" d="M818.1,567.2 C813.3,562.2 809.3,555.4 809.4,548.3 C809.5,541.4 814.5,536.2 821.1,535.1 C823,534.8 822.2,531.9 820.3,532.2 C813.2,533.4 807.5,538.9 806.5,546.1 C805.3,554.7 810.2,563.4 816,569.4 C817.3,570.8 819.4,568.6 818.1,567.2 L818.1,567.2 Z" class="color161616 svgShape"></path><path fill="#161616" d="M828.2 558.3C820.5 549.7 819.6 537.1 825.7 527.4 826.7 525.8 824.1 524.3 823.1 525.9 816.2 536.8 817.5 550.9 826 560.4 827.4 561.9 829.5 559.8 828.2 558.3zM836.3 551.7C833.1 543.9 831.9 535.2 833.9 526.9 835 522.2 841 513.3 845.8 520.5 847.8 523.5 847.1 528 846.8 531.4 846.3 537.8 844 544.8 847.3 550.8 848.9 553.6 851.3 556 853.1 558.6 855.4 561.8 857.2 565.3 858.9 568.9 859.7 570.7 862.3 569.1 861.5 567.4 859.4 562.8 856.8 558.5 853.7 554.5 851.9 552.1 849.6 549.9 848.8 546.9 848 544 848.8 540.8 849.1 537.8 849.9 531.7 852.4 520.3 845.8 516.2 839.9 512.5 833.6 518 831.7 523.4 828.3 532.7 829.7 543.6 833.3 552.6 834.1 554.3 837 553.5 836.3 551.7z" class="color161616 svgShape"></path><path fill="#161616" d="M824.7 528.3C825.9 524.8 830.3 523.2 833.6 524.9 835.3 525.8 836.8 523.2 835.1 522.3 830.1 519.6 823.7 522.2 821.8 527.5 821.1 529.3 824 530.1 824.7 528.3zM863 566.1C864.1 562.9 865.7 560.1 868.1 557.8 869.1 556.9 870.2 556 871.4 555.3 874.2 553.7 875.4 553.7 878.5 554.8 882.1 556.1 882.6 556.9 882.9 560.7 883 561.9 883 563.1 882.9 564.3 882.6 568.1 881.2 571.7 879.4 575 877.3 578.8 874.7 582.3 873.5 586.6 871.7 593.1 871.6 598.4 864.6 601.5 862.8 602.3 864.4 604.9 866.1 604.1 869.1 602.8 871.6 600.8 873.3 598 875.6 594.3 875.4 589.9 876.8 585.9 878.4 581.5 881.5 577.8 883.5 573.6 885.3 569.6 886.2 565.2 885.9 560.8 885.5 554.8 882 549.8 875.4 550.8 867.9 551.9 862.4 558.6 860.1 565.4 859.4 567.1 862.3 567.9 863 566.1L863 566.1z" class="color161616 svgShape"></path><path fill="#161616" d="M863.6,602.2 C860.8,620.4 858.5,638.7 856.9,657 C855.5,673.4 854.6,689.9 856.2,706.4 C857.7,721.5 861.5,736.2 868.6,749.6 C875.8,763.3 884.7,775.8 880.7,792.1 C880.2,794 883.1,794.8 883.6,792.9 C887,778.8 881.8,767.3 875.1,755.2 C867.1,740.9 861.7,726.3 859.6,709.9 C857.6,693.5 858.3,677 859.6,660.6 C861.2,641.4 863.5,622.2 866.5,603.1 C866.8,601.1 863.9,600.3 863.6,602.2 L863.6,602.2 Z" class="color161616 svgShape"></path><path fill="#161616" d="M825.1,599.3 C827.1,603.7 826.6,608.6 826.1,613.3 C825.5,618.6 824.7,623.9 823.6,629.2 C821.8,638.5 819.3,647.7 816.9,656.9 C812.2,675 807.7,693.1 807.1,711.8 C806.5,730.3 808.9,749.4 815,766.9 C820.1,781.5 829.1,795.6 843.6,802.1 C857.3,808.2 874.2,805.3 883,792.5 C884.1,790.9 881.5,789.4 880.4,791 C870.7,805 851.4,804.7 838.4,795.7 C824.4,786 818,769.3 814.2,753.4 C810,735.8 808.9,717.4 810.9,699.5 C812.9,681.9 817.9,664.9 822.2,647.8 C824.5,638.6 826.7,629.4 828,620 C829.1,612.7 830.6,604.7 827.4,597.8 C826.9,596 824.3,597.6 825.1,599.3 L825.1,599.3 Z" class="color161616 svgShape"></path><path fill="#6d6c6c" d="M815.9,535.8 C815.5,540.8 815.5,547.2 817,554.2 C821.1,573.4 833.2,585.5 838.7,590.3 C838.9,596 839,604.8 838.7,615.4 C837.2,663 827.8,686.3 826.2,708.6 C824.7,730.3 829.8,762 861.6,803 C857.3,803.3 850.8,803.3 843.9,800.4 C837.7,797.8 828,791.8 819.2,771.7 C811.2,753.3 802.4,719.6 812.2,681 C816.5,664.2 823.2,651 826.6,622.8 C827.5,615.3 827.9,609 828.1,604.7 C825.9,600.7 822.7,595.2 818.1,589.2 C810.6,579.3 805.7,576 804.5,568.9 C803.6,563.9 804.8,558.8 807.4,553.8 C807.1,552.5 806.2,547.2 809.2,542 C811.4,538.4 814.5,536.6 815.9,535.8 L815.9,535.8 Z" opacity=".1" class="color6D6C6C svgShape"></path><path fill="#6d6c6c" d="M828.8,612.099265 C829.5,612.2 827.4,629.6 823.3,664.4 C819.6,695.1 817.8,710.4 817.8,711.6 C816.5,757.2 834.3,789.4 831.4,790.5 C829.3,791.3 819.2,775.1 813.3,755.5 C805.2,728.4 808.4,704.9 810.4,691.4 C812.1,679.5 812.8,682.8 821.8,642.4 C826.3,622.1 828.1,612 828.8,612.099265 Z" opacity=".11" class="color6D6C6C svgShape"></path><path fill="#ffffff" d="M349.3,897.9 C348.4,895.5 346.7,892 343.7,888.5 C340.4,884.6 337.6,883.2 335.4,881.6 C331.5,878.6 330,874.9 323.6,847.2 C320.6,834 320.3,832.5 320.8,829.8 C322.1,822.8 325.8,820.4 327.7,811.4 C328.6,807.1 328.6,804 328.4,798.2 C328.1,789.4 327.9,780.4 324.2,770.1 C320.9,760.6 317.1,750.1 307.2,745.4 C300.3,742.2 293.5,743.3 287.4,744.4 C275.1,746.6 272.4,751.2 259.6,756.9 C253.2,759.7 234.8,767.9 213,766.6 C203.3,766 197.9,763.9 191.8,767.6 C185.4,771.6 182.7,779.2 180.7,785 C178.2,792.1 177.6,798.3 177.6,802.4 C176.3,806.7 174.3,813.2 172,821.2 C165.6,844 165.6,848.2 161.2,860.5 C156.8,873 154,880.8 147.3,889.7 C145.1,892.6 145,892.3 124.7,911.9 C114.3,921.9 108.8,927.4 106.3,936.6 C105.3,940.2 103.7,945.9 106.6,949.8 C107.5,950.9 110.4,954.2 128.1,953.6 C136.3,953.3 137.4,952.6 145.8,951.9 C161.3,950.6 173.4,951.9 179.5,952.6 C185.3,953.2 190.1,954.1 193.4,954.7 C196.6,955 201.4,955.6 207,957.1 C217.1,959.9 220.2,963 229.2,966.8 C234.7,969.1 246,973.8 259.8,973.4 C269.2,973.1 276.8,970.6 281.7,968.5 C288.9,969.6 294.8,969.1 298.7,968.5 C305.5,967.4 310.7,965.2 315,963.3 C320.2,961 319.9,960.5 326.5,957.4 C338,951.8 339.9,952.8 343.2,949.8 C345.6,947.6 347.8,944.1 349.1,929.6 C350,921.9 350.5,911.1 349.3,897.9 L349.3,897.9 Z M184,925.5 C184.8,931 186.4,935.4 184,937.8 C180.9,940.8 175.6,936.5 162.2,937.2 C160,937.3 158.7,937.5 152.2,938 C146.5,938.4 146.7,938.3 143.1,938.6 C137.3,939.1 136.8,939.4 134.4,939.2 C130.1,938.8 127.9,938.7 126.1,937.1 C123.2,934.6 122.7,930 123.3,926.9 C124.3,920.7 129.4,918.1 138.5,910.6 C142.3,907.5 147.8,902.7 154,896 C157.7,891.1 161.3,886 165,880.7 C166.7,878.2 168.3,875.8 169.9,873.3 C171.4,869.2 173.3,863.5 175.2,856.6 C180.2,838.4 180.3,827.1 182,827 C184,827 185.7,841.8 186.4,849.9 C187.2,860.3 187,868.9 186.6,874.7 C187.6,876.6 189,879.8 189.4,884 C189.9,888.7 189,892.5 188.3,894.6 C182.9,908.1 182.9,918.4 184,925.5 L184,925.5 Z" class="colorFFF svgShape"></path><path fill="#161616" d="M184.5,773 C171.2,794.6 179.7,820 183.5,843.1 C184.6,849.9 185.2,856.7 184.9,863.5 C184.7,866.7 184.3,869.9 184.7,873.2 C185.1,876.2 186.2,878.9 186.9,881.8 C188.8,889.3 186.1,896.9 184.6,904.2 C183.3,910.5 182,916.8 181.8,923.2 C181.4,933.3 183.9,944.1 191.2,951.4 C199.3,959.5 211.1,958.2 220.8,963.3 C230.9,968.7 240.4,973.2 252,974.3 C257.7,974.8 263.6,974.6 269.2,973.6 C275.2,972.6 280.8,969.7 286.8,968.7 C292.5,967.8 298,969.8 303.7,968.3 C310.1,966.7 316.3,963.1 322.3,960.4 C328.5,957.6 334.7,954.7 341,951.9 C345.1,950 348.8,948.3 349.8,943.5 C351.1,937.5 350.4,930.4 350.5,924.3 C350.7,917.9 351.2,911.5 350.8,905.1 C350.6,901 350,896.9 348.3,893.2 C345.7,887.4 340.2,885.6 336.6,880.8 C329.5,871 325.9,857.3 323.9,845.5 C323.3,841.8 322.9,838.1 322.6,834.4 C322.4,830.6 323.7,828.2 325.1,824.9 C327.1,820.2 328.4,815.2 329,810.2 C330.6,798.6 329.1,786.7 326.4,775.4 C324.1,765.8 321,755.1 313.3,748.3 C293.1,730.5 266.6,751.4 247.9,760.2 C241,763.4 233.8,765.5 226.2,765.5 C218.9,765.5 211.7,764.1 204.4,764.6 C194.7,765.2 184.6,769.6 181.3,779.3 C180.7,781.1 183.6,781.9 184.2,780.1 C188.2,768.4 202.1,767.1 212.6,767.7 C223.8,768.4 234,769.1 244.6,764.9 C262.8,757.7 281.7,739.5 302.8,745.9 C314.4,749.4 319.3,760.7 322.3,771.5 C325.3,782.3 327.2,793.5 326.6,804.7 C326.3,810.2 325.3,815.7 323.5,821 C322.7,823.4 321.6,825.8 320.4,828.1 C319.1,830.7 319.4,832.6 319.6,835.6 C320.3,846.4 322.6,857 326.5,867.1 C328.2,871.5 330.1,875.9 332.4,880.1 C334.9,884.5 338.3,886.3 341.8,889.7 C349.8,897.3 347.7,910.8 347.4,920.7 C347.2,927 347,933.3 346.8,939.6 C346.7,943.8 345.8,946.2 342.2,948.3 C339.3,950 336,951.2 332.9,952.5 C327.3,955.1 321.6,957.6 316,960.2 C309.6,963.1 303.2,966.8 295.9,966.4 C291.1,966.2 287.2,965.6 282.5,966.9 C276.7,968.6 271.2,970.7 265.2,971.4 C253.7,972.8 241.8,971 231.4,966 C227,963.9 222.9,961.1 218.4,959.1 C213.7,957 208.8,956.5 203.8,955.3 C192,952.5 185.7,941.3 184.7,929.9 C183.5,916.3 188.7,903.6 190.3,890.3 C191.2,883.6 187.7,878 187.2,871.4 C186.8,864.7 187.9,858.1 187.2,851.3 C184.7,826.2 172.2,798.3 186.7,774.6 C188.2,772.8 185.6,771.3 184.5,773 L184.5,773 Z" class="color161616 svgShape"></path><path fill="#161616" d="M186.4,772.7 C203.9,770.1 217.6,784.1 224.9,798.3 C231.9,811.7 235.5,826.6 243.2,839.7 C249.7,850.7 259.2,859.9 272,862.7 C283.3,865.2 295.8,862.8 305.1,855.8 C317.6,846.4 323,830.9 325.8,816.1 C326.2,814.2 323.3,813.4 322.9,815.3 C320.3,828.8 315.7,843.3 304.7,852.3 C293.6,861.4 277.2,863.3 264.3,856.8 C237.6,843.5 237.4,807.2 220.4,785.8 C212,775.2 199.2,767.8 185.4,769.8 C183.7,770.1 184.5,773 186.4,772.7 L186.4,772.7 Z" class="color161616 svgShape"></path><path fill="#161616" d="M292.1 868.1C292.2 868.3 292.3 868.4 292.4 868.6 292.5 868 292.6 867.4 292.6 866.8 292.4 867 292.3 867.1 292.1 867.3 292.7 867.2 293.3 867.1 293.9 867.1 292.2 866.2 291.4 862.4 290.8 860.7 289.9 858.1 289.3 855.3 288.8 852.6 288.5 850.5 287.1 834.8 291.5 836.3 292.8 836.8 293.8 842.2 294.2 843.6 294.9 846.3 295.3 849.1 295.6 851.9 295.9 854.6 295.9 857.3 296 859.9 296 861.1 296.1 862.3 296.1 863.5 296.1 864.1 296.1 864.7 296 865.3 296.2 866 295.9 866.5 295.2 866.8 295.4 864.9 292.4 864.9 292.2 866.8 292 868.8 293.6 870.4 295.7 870.2 298.6 869.9 299 866.7 299 864.4 299.2 859 298.9 853.3 298.1 848 297.5 843.6 296.6 837.3 293.4 833.9 287.5 827.5 285.5 840 285.4 843.4 285.1 848.7 285.8 854 287.2 859 288.1 862 289.4 868.1 292.5 869.7 293.1 870 293.8 870 294.3 869.5 294.5 869.3 294.6 869.2 294.8 869 295.3 868.5 295.4 867.7 295 867.2 294.9 867 294.8 866.9 294.7 866.7 293.7 864.9 291.1 866.4 292.1 868.1L292.1 868.1zM268.1 922.3C268.6 938.3 270 954.3 272.3 970.1 272.6 972 275.5 971.2 275.2 969.3 273 953.7 271.6 938 271.1 922.3 271 920.4 268 920.4 268.1 922.3L268.1 922.3z" class="color161616 svgShape"></path><path fill="#161616" d="M270.2,923 C277.3,913 290,908.8 301,905 C313.1,900.8 325.4,897.6 338,895.3 C339.9,895 339.1,892.1 337.2,892.4 C322.8,895 308.6,898.9 294.9,904 C284.6,907.9 274.1,912.3 267.5,921.5 C266.5,923.1 269.1,924.6 270.2,923 Z" class="color161616 svgShape"></path><path fill="#161616" d="M270.7,923.6 C282.5,929.9 294,934.7 307.6,931.1 C320.6,927.6 332.7,920.3 342.9,911.8 C344.4,910.6 342.3,908.5 340.8,909.7 C331.3,917.6 320.3,924.2 308.5,927.8 C295.1,931.9 284,927.5 272.2,921.1 C270.5,920.1 269,922.7 270.7,923.6 L270.7,923.6 Z" class="color161616 svgShape"></path><path fill="#161616" d="M317.3 921.2C318.1 925.1 318.9 929.1 319.7 933 320.1 934.9 323 934.1 322.6 932.2 321.8 928.3 321 924.3 320.2 920.4 319.8 918.5 316.9 919.3 317.3 921.2zM324 918.4C324.4 922.1 324.7 925.8 325.1 929.5 325.3 931.4 328.3 931.4 328.1 929.5 327.7 925.8 327.4 922.1 327 918.4 326.8 916.5 323.8 916.4 324 918.4zM187.1 896.7C185.2 902.2 187.1 907.2 193.6 906.1 195.2 905.8 196.6 905.1 198.2 904.6 199.1 904.3 200.4 903.8 201.4 903.9 206.5 904.6 203.6 906.3 204.9 908.1 206.4 910.1 207.3 911.1 210 911.1 213.6 911 220.7 907.6 223.1 912 224 913.8 223.1 918.6 223.1 920.8 223.1 923.4 223.2 926 223.2 928.6 223.4 940 223.7 951.4 224.1 962.7 224.2 964.6 227.2 964.6 227.1 962.7 226.4 945.2 226.1 927.6 226 910 226 909.5 225.7 908.9 225.3 908.7 222 907.2 218.7 906.5 215.1 907 212.6 907.3 211.5 908.3 209.1 906.9 206.8 905.6 207.6 904.8 206.2 903 204.7 901.1 202.5 900.7 200.2 901 198.6 901.2 197.3 901.9 195.8 902.4 195 902.7 194 903.2 193.1 903.2 190.9 903.1 189.3 899.7 190.1 897.6 190.6 895.7 187.7 894.9 187.1 896.7L187.1 896.7zM180.5 797.6C180.6 786.1 184.3 765.3 200.7 769.3 202.6 769.8 203.4 766.9 201.5 766.4 194.6 764.7 187.8 767.7 183.5 773.2 178.1 780 177.5 789.2 177.5 797.6 177.5 799.6 180.5 799.6 180.5 797.6z" class="color161616 svgShape"></path><path fill="#161616" d="M177.8,791.3 C175.6,795.9 178.7,800.6 181.5,804.4 C184.4,808.4 188.8,812 194,810.9 C196.9,810.3 198.9,807.7 201.8,807.2 C205,806.5 208.1,809.3 211.3,809.2 C218.1,808.9 222.2,802.4 227.1,798.8 C228.6,797.7 227.2,795.1 225.6,796.2 C221.7,799 218.7,803.4 214.2,805.3 C209.5,807.3 206.7,803.8 202.2,804.1 C197.7,804.4 195.1,809 190.3,807.8 C186.3,806.8 178.3,797.6 180.5,792.8 C181.2,791.1 178.6,789.5 177.8,791.3 L177.8,791.3 Z" class="color161616 svgShape"></path><path fill="#161616" d="M178.6,789.5 C173.8,810.5 168.2,831.3 161.9,851.8 C158.9,861.5 156.1,871.6 151.1,880.6 C146.8,888.3 140.9,894.8 134.6,900.9 C123.6,911.5 110.9,921.5 104.7,935.9 C102.2,941.7 101.5,947.7 107.2,951.8 C113.5,956.4 122.8,956.2 130.1,955.5 C141.3,954.4 152.4,950.9 163.7,951.8 C174.5,952.7 184.8,957.1 195.6,953.9 C197.4,953.3 196.7,950.5 194.8,951 C185.1,953.9 175.6,950.2 165.9,949 C157.9,948 149.9,949.3 142.1,950.6 C132.7,952.2 122.1,954.5 112.8,951.2 C107,949.2 104.5,944.9 106.6,939 C108,935.1 110.1,931.4 112.5,928.1 C121,915.9 133.4,907.1 143.4,896.2 C154.6,883.9 159.7,869.2 164.6,853.5 C171,832.6 176.7,811.5 181.6,790.2 C182,788.4 179.1,787.6 178.6,789.5 L178.6,789.5 Z" class="color161616 svgShape"></path><path fill="#161616" d="M178.7 822.7C176.9 841.6 174.9 861 165.6 878 161.5 885.6 156.2 892.5 150 898.4 144.3 903.8 137.7 908.1 131.8 913.2 127.4 917 121.1 922.7 120.7 929 120.3 934.7 125.1 939.2 130.2 940.7 138.4 943.2 148.3 940.2 156.7 939.7 166.5 939.2 176.4 939.5 186.2 940.5 188.1 940.7 188.1 937.7 186.2 937.5 177.1 936.5 167.9 936.2 158.7 936.6 154.8 936.8 150.8 937.1 146.9 937.5 142.3 938 137.4 939.1 132.8 938.2 127.1 937.1 122.2 932.6 124.6 926.4 126.1 922.7 129.3 919.5 132.2 916.8 137.5 911.8 143.7 907.9 149.1 903.1 159.4 894.2 167.5 882.7 172.6 870.1 178.7 855 180.2 838.6 181.8 822.5 181.9 820.8 178.9 820.8 178.7 822.7L178.7 822.7zM204.5 908C205.4 916.9 206.8 925.6 208.8 934.3 209.2 936.2 212.1 935.4 211.7 933.5 209.8 925.1 208.4 916.6 207.5 907.9 207.3 906.1 204.3 906.1 204.5 908zM229.5 781.7C245.5 794 271.3 801.1 290 790.7 291.7 789.8 290.2 787.2 288.5 788.1 270.7 797.9 246.1 790.7 231.1 779.1 229.4 777.9 227.9 780.5 229.5 781.7zM180.8 794.5C180.2 787.3 181.6 778.9 186.6 773.4 191.6 768 199.4 768.5 206.2 768.5 218.7 768.7 231.3 770 243.2 765.6 245 764.9 244.2 762 242.4 762.7 227.1 768.4 211.4 763.9 195.7 765.9 182 767.7 176.8 782.1 177.8 794.5 177.9 796.4 180.9 796.5 180.8 794.5L180.8 794.5z" class="color161616 svgShape"></path><path fill="#161616" d="M181.4,797.4 C182.4,790.5 184.6,784 188.4,778.1 C190.4,775 192.5,772.1 196,770.8 C199.4,769.5 203.4,770 207,770 C219.1,770.2 231.5,770.6 242.5,764.8 C244.2,763.9 242.7,761.3 241,762.2 C233.8,766 225.9,767 217.9,767.1 C211.1,767.2 203.8,766 197.1,767.3 C185.4,769.6 180,786.4 178.5,796.5 C178.2,798.4 181.1,799.3 181.4,797.4 L181.4,797.4 Z" class="color161616 svgShape"></path><path fill="#161616" d="M180.5,794.8 C181.2,785.7 182.3,774 191.3,769 C196.2,766.3 202.6,766.9 208,766.8 C212.7,766.8 217.4,766.9 222.2,766.8 C231.3,766.6 240.4,765.9 249.1,762.9 C257.4,760 265.1,755.5 272.6,751 C274.3,750 272.8,747.4 271.1,748.4 C262,753.8 252.7,759.3 242.3,761.7 C230.8,764.4 218.9,763.7 207.2,763.8 C198.6,763.9 190.3,763.9 184.5,771.2 C179.2,777.9 178.4,786.6 177.7,794.8 C177.4,796.7 180.4,796.7 180.5,794.8 L180.5,794.8 Z" class="color161616 svgShape"></path><path fill="#6d6c6c" d="M248.9,763.9 C253.2,767.9 247.6,775.5 251.5,782.3 C256.6,791.1 271.3,792.2 282.5,791.7 C276.6,793.3 267.6,797 262.6,805.3 C253.8,819.9 259.9,844.3 281,861.5 C282.9,876.5 284.8,891.6 286.8,906.6 C281.2,911.5 275.6,916.4 270,921.3 C270.2,938.1 270.3,954.9 270.5,971.7 C265.5,973.5 257.7,975.5 248.5,974.3 C239.3,973.2 237.2,970 219.6,962.8 C203.3,956.1 200.9,957.2 195.5,952.3 C185.5,943.4 183.6,930.9 183.4,929.7 C182.1,920.5 185.8,919.3 187.6,900.8 C188.5,891.2 188.3,883.6 188.1,880.9 C187.7,872 186.6,868.7 185.5,858.9 C184.1,847.2 184.8,844.8 183.9,833.7 C181.7,805.1 175.8,799.9 179.7,785.4 C181.3,779.5 183.2,772.1 189.7,768.1 C197.8,763 203.7,769 220.7,767.6 C237,766.2 244.5,759.6 248.9,763.9 L248.9,763.9 Z" opacity=".05" class="color6D6C6C svgShape"></path><path fill="#6d6c6c" d="M193.3,770.7 C182.2,772.8 174.5,790.2 179.7,800.6 C181.4,804 185.3,808.4 190.2,809 C194.2,809.5 195.2,806.9 201.2,806.4 C207.3,805.9 208.4,808.3 213.3,807.4 C216.9,806.8 222.2,804.3 223.8,800.1 C226.6,792.6 216.4,783.5 212.8,780.2 C207.1,775.1 200.7,769.3 193.3,770.7 Z" opacity=".11" class="color6D6C6C svgShape"></path><path fill="#6d6c6c" d="M186.5,837.4 C188.9,837 194.4,869.9 205.9,902 C216.7,931.9 230.4,954.8 241.1,970.2 C232.5,965.9 225.2,963.3 220.1,961.8 C213.4,959.8 208.5,959 201.7,955.5 C196.7,952.9 193,950.1 190.7,948.2 C188.5,945.4 185.4,940.8 184.4,934.6 C184,932.3 184.1,931.2 184.9,921 C186,906.2 186,905.7 186.5,903.2 C188,895 189.3,895.1 189.6,889.6 C190,884.4 188.9,883.4 187.5,873.3 C186.3,864.5 186.1,857.8 185.9,853.4 C185.7,843.4 185.5,837.5 186.5,837.4 L186.5,837.4 Z" opacity=".14" class="color6D6C6C svgShape"></path></g></svg></g></svg>