<svg xmlns="http://www.w3.org/2000/svg" xmlns:xlink="http://www.w3.org/1999/xlink" width="240" zoomAndPan="magnify" viewBox="0 0 180 48" height="64" preserveAspectRatio="xMidYMid meet" version="1.0"><defs><g/></defs><g fill="#000000" fill-opacity="1"><g transform="translate(15.686241, 29.010578)"><g><path d="M 10.5 0.28125 C 8.726562 0.28125 7.164062 -0.0859375 5.8125 -0.828125 C 4.46875 -1.566406 3.414062 -2.671875 2.65625 -4.140625 C 1.894531 -5.617188 1.515625 -7.441406 1.515625 -9.609375 C 1.515625 -11.765625 1.894531 -13.582031 2.65625 -15.0625 C 3.414062 -16.539062 4.46875 -17.644531 5.8125 -18.375 C 7.164062 -19.113281 8.726562 -19.484375 10.5 -19.484375 C 12.34375 -19.484375 13.910156 -19.117188 15.203125 -18.390625 C 16.492188 -17.671875 17.414062 -16.570312 17.96875 -15.09375 L 15.203125 -13.40625 L 14.875 -13.40625 C 14.457031 -14.40625 13.894531 -15.125 13.1875 -15.5625 C 12.488281 -16 11.59375 -16.21875 10.5 -16.21875 C 8.90625 -16.21875 7.660156 -15.6875 6.765625 -14.625 C 5.867188 -13.570312 5.421875 -11.898438 5.421875 -9.609375 C 5.421875 -7.316406 5.867188 -5.644531 6.765625 -4.59375 C 7.660156 -3.539062 8.90625 -3.015625 10.5 -3.015625 C 12.988281 -3.015625 14.515625 -4.222656 15.078125 -6.640625 L 15.40625 -6.640625 L 18.203125 -5.1875 C 17.679688 -3.363281 16.785156 -1.992188 15.515625 -1.078125 C 14.242188 -0.171875 12.570312 0.28125 10.5 0.28125 Z M 10.5 0.28125 "/></g></g></g><g fill="#000000" fill-opacity="1"><g transform="translate(32.766494, 29.010578)"><g><path d="M 8.421875 0.28125 C 7.003906 0.28125 5.757812 -0.0078125 4.6875 -0.59375 C 3.613281 -1.175781 2.78125 -2.03125 2.1875 -3.15625 C 1.59375 -4.28125 1.296875 -5.640625 1.296875 -7.234375 C 1.296875 -8.828125 1.59375 -10.1875 2.1875 -11.3125 C 2.78125 -12.445312 3.613281 -13.304688 4.6875 -13.890625 C 5.757812 -14.472656 7.003906 -14.765625 8.421875 -14.765625 C 9.835938 -14.765625 11.082031 -14.472656 12.15625 -13.890625 C 13.226562 -13.304688 14.0625 -12.445312 14.65625 -11.3125 C 15.257812 -10.1875 15.5625 -8.828125 15.5625 -7.234375 C 15.5625 -5.640625 15.257812 -4.28125 14.65625 -3.15625 C 14.0625 -2.03125 13.226562 -1.175781 12.15625 -0.59375 C 11.082031 -0.0078125 9.835938 0.28125 8.421875 0.28125 Z M 8.421875 -2.8125 C 10.671875 -2.8125 11.796875 -4.285156 11.796875 -7.234375 C 11.796875 -8.765625 11.503906 -9.882812 10.921875 -10.59375 C 10.347656 -11.3125 9.515625 -11.671875 8.421875 -11.671875 C 6.171875 -11.671875 5.046875 -10.191406 5.046875 -7.234375 C 5.046875 -4.285156 6.171875 -2.8125 8.421875 -2.8125 Z M 8.421875 -2.8125 "/></g></g></g><g fill="#000000" fill-opacity="1"><g transform="translate(47.850923, 29.010578)"><g><path d="M 7.15625 0.28125 C 6.007812 0.28125 4.992188 0.00390625 4.109375 -0.546875 C 3.234375 -1.109375 2.546875 -1.953125 2.046875 -3.078125 C 1.546875 -4.203125 1.296875 -5.585938 1.296875 -7.234375 C 1.296875 -8.890625 1.550781 -10.28125 2.0625 -11.40625 C 2.582031 -12.53125 3.296875 -13.367188 4.203125 -13.921875 C 5.109375 -14.484375 6.15625 -14.765625 7.34375 -14.765625 C 8.25 -14.765625 9.03125 -14.609375 9.6875 -14.296875 C 10.351562 -13.984375 10.910156 -13.5 11.359375 -12.84375 L 11.640625 -12.921875 L 11.640625 -20.3125 L 15.28125 -20.3125 L 15.28125 0 L 11.640625 0 L 11.640625 -1.875 L 11.359375 -1.9375 C 10.960938 -1.25 10.410156 -0.707031 9.703125 -0.3125 C 9.003906 0.0820312 8.15625 0.28125 7.15625 0.28125 Z M 8.34375 -2.8125 C 9.363281 -2.8125 10.171875 -3.175781 10.765625 -3.90625 C 11.367188 -4.632812 11.671875 -5.742188 11.671875 -7.234375 C 11.671875 -8.722656 11.367188 -9.832031 10.765625 -10.5625 C 10.171875 -11.300781 9.363281 -11.671875 8.34375 -11.671875 C 7.269531 -11.671875 6.453125 -11.3125 5.890625 -10.59375 C 5.328125 -9.882812 5.046875 -8.765625 5.046875 -7.234375 C 5.046875 -5.710938 5.328125 -4.59375 5.890625 -3.875 C 6.453125 -3.164062 7.269531 -2.8125 8.34375 -2.8125 Z M 8.34375 -2.8125 "/></g></g></g><g fill="#000000" fill-opacity="1"><g transform="translate(63.46057, 29.010578)"><g><path d="M 3.90625 -16.21875 C 3.25 -16.21875 2.710938 -16.414062 2.296875 -16.8125 C 1.890625 -17.21875 1.6875 -17.734375 1.6875 -18.359375 C 1.6875 -18.984375 1.890625 -19.492188 2.296875 -19.890625 C 2.710938 -20.296875 3.25 -20.5 3.90625 -20.5 C 4.34375 -20.5 4.726562 -20.40625 5.0625 -20.21875 C 5.40625 -20.03125 5.671875 -19.773438 5.859375 -19.453125 C 6.054688 -19.140625 6.15625 -18.773438 6.15625 -18.359375 C 6.15625 -17.953125 6.054688 -17.585938 5.859375 -17.265625 C 5.671875 -16.941406 5.40625 -16.6875 5.0625 -16.5 C 4.726562 -16.3125 4.34375 -16.21875 3.90625 -16.21875 Z M 2.09375 0 L 2.09375 -14.484375 L 5.734375 -14.484375 L 5.734375 0 Z M 2.09375 0 "/></g></g></g><g fill="#000000" fill-opacity="1"><g transform="translate(69.511275, 29.010578)"><g><path d="M 2.09375 0 L 2.09375 -14.484375 L 5.578125 -14.484375 L 5.578125 -12.359375 L 5.859375 -12.296875 C 6.765625 -13.941406 8.226562 -14.765625 10.25 -14.765625 C 11.914062 -14.765625 13.140625 -14.304688 13.921875 -13.390625 C 14.710938 -12.484375 15.109375 -11.160156 15.109375 -9.421875 L 15.109375 0 L 11.46875 0 L 11.46875 -8.96875 C 11.46875 -9.9375 11.273438 -10.628906 10.890625 -11.046875 C 10.503906 -11.472656 9.882812 -11.6875 9.03125 -11.6875 C 7.988281 -11.6875 7.175781 -11.347656 6.59375 -10.671875 C 6.019531 -10.003906 5.734375 -8.945312 5.734375 -7.5 L 5.734375 0 Z M 2.09375 0 "/></g></g></g><g fill="#000000" fill-opacity="1"><g transform="translate(84.727012, 29.010578)"><g><path d="M 7.515625 6.15625 C 5.117188 6.15625 3.351562 5.800781 2.21875 5.09375 C 1.082031 4.394531 0.515625 3.421875 0.515625 2.171875 C 0.515625 1.410156 0.753906 0.785156 1.234375 0.296875 C 1.722656 -0.191406 2.425781 -0.519531 3.34375 -0.6875 L 3.34375 -0.953125 C 2.84375 -1.253906 2.484375 -1.585938 2.265625 -1.953125 C 2.054688 -2.316406 1.953125 -2.738281 1.953125 -3.21875 C 1.953125 -4.382812 2.710938 -5.171875 4.234375 -5.578125 L 4.234375 -5.84375 C 3.453125 -6.289062 2.863281 -6.84375 2.46875 -7.5 C 2.070312 -8.164062 1.875 -8.96875 1.875 -9.90625 C 1.875 -10.863281 2.09375 -11.707031 2.53125 -12.4375 C 2.976562 -13.175781 3.628906 -13.75 4.484375 -14.15625 C 5.335938 -14.5625 6.359375 -14.765625 7.546875 -14.765625 C 8.765625 -14.765625 9.726562 -14.554688 10.4375 -14.140625 C 10.882812 -14.785156 11.144531 -15.535156 11.21875 -16.390625 L 11.5 -16.546875 L 14.109375 -15.90625 C 14.023438 -15.21875 13.820312 -14.640625 13.5 -14.171875 C 13.175781 -13.703125 12.675781 -13.285156 12 -12.921875 L 12 -12.625 C 12.8125 -11.90625 13.21875 -10.898438 13.21875 -9.609375 C 13.21875 -8.722656 12.992188 -7.925781 12.546875 -7.21875 C 12.097656 -6.507812 11.445312 -5.945312 10.59375 -5.53125 C 9.738281 -5.113281 8.722656 -4.90625 7.546875 -4.90625 L 7 -4.921875 C 6.65625 -4.941406 6.410156 -4.953125 6.265625 -4.953125 C 5.929688 -4.953125 5.671875 -4.863281 5.484375 -4.6875 C 5.296875 -4.507812 5.203125 -4.28125 5.203125 -4 C 5.203125 -3.6875 5.320312 -3.441406 5.5625 -3.265625 C 5.8125 -3.097656 6.171875 -3.007812 6.640625 -3 L 9.890625 -2.875 C 13.097656 -2.78125 14.703125 -1.398438 14.703125 1.265625 C 14.703125 2.203125 14.460938 3.035156 13.984375 3.765625 C 13.503906 4.492188 12.726562 5.070312 11.65625 5.5 C 10.59375 5.9375 9.210938 6.15625 7.515625 6.15625 Z M 7.546875 -7.46875 C 8.253906 -7.46875 8.800781 -7.671875 9.1875 -8.078125 C 9.582031 -8.492188 9.78125 -9.082031 9.78125 -9.84375 C 9.78125 -10.601562 9.582031 -11.1875 9.1875 -11.59375 C 8.800781 -12 8.253906 -12.203125 7.546875 -12.203125 C 6.835938 -12.203125 6.289062 -12 5.90625 -11.59375 C 5.519531 -11.1875 5.328125 -10.601562 5.328125 -9.84375 C 5.328125 -9.070312 5.519531 -8.484375 5.90625 -8.078125 C 6.289062 -7.671875 6.835938 -7.46875 7.546875 -7.46875 Z M 7.515625 3.5 C 8.753906 3.5 9.65625 3.320312 10.21875 2.96875 C 10.789062 2.625 11.078125 2.171875 11.078125 1.609375 C 11.078125 1.160156 10.929688 0.828125 10.640625 0.609375 C 10.347656 0.390625 9.890625 0.273438 9.265625 0.265625 L 6.390625 0.125 C 6.296875 0.125 6.207031 0.117188 6.125 0.109375 C 6.039062 0.109375 5.960938 0.109375 5.890625 0.109375 C 5.273438 0.109375 4.804688 0.238281 4.484375 0.5 C 4.160156 0.757812 4 1.125 4 1.59375 C 4 2.207031 4.289062 2.675781 4.875 3 C 5.46875 3.332031 6.347656 3.5 7.515625 3.5 Z M 7.515625 3.5 "/></g></g></g><g fill="#000000" fill-opacity="1"><g transform="translate(98.038846, 29.010578)"><g/></g></g><g fill="#000000" fill-opacity="1"><g transform="translate(102.632077, 29.010578)"><g><path d="M 10.5 0.28125 C 8.726562 0.28125 7.164062 -0.0859375 5.8125 -0.828125 C 4.46875 -1.566406 3.414062 -2.671875 2.65625 -4.140625 C 1.894531 -5.617188 1.515625 -7.441406 1.515625 -9.609375 C 1.515625 -11.765625 1.894531 -13.582031 2.65625 -15.0625 C 3.414062 -16.539062 4.46875 -17.644531 5.8125 -18.375 C 7.164062 -19.113281 8.726562 -19.484375 10.5 -19.484375 C 12.34375 -19.484375 13.910156 -19.117188 15.203125 -18.390625 C 16.492188 -17.671875 17.414062 -16.570312 17.96875 -15.09375 L 15.203125 -13.40625 L 14.875 -13.40625 C 14.457031 -14.40625 13.894531 -15.125 13.1875 -15.5625 C 12.488281 -16 11.59375 -16.21875 10.5 -16.21875 C 8.90625 -16.21875 7.660156 -15.6875 6.765625 -14.625 C 5.867188 -13.570312 5.421875 -11.898438 5.421875 -9.609375 C 5.421875 -7.316406 5.867188 -5.644531 6.765625 -4.59375 C 7.660156 -3.539062 8.90625 -3.015625 10.5 -3.015625 C 12.988281 -3.015625 14.515625 -4.222656 15.078125 -6.640625 L 15.40625 -6.640625 L 18.203125 -5.1875 C 17.679688 -3.363281 16.785156 -1.992188 15.515625 -1.078125 C 14.242188 -0.171875 12.570312 0.28125 10.5 0.28125 Z M 10.5 0.28125 "/></g></g></g><g fill="#000000" fill-opacity="1"><g transform="translate(119.712328, 29.010578)"><g><path d="M 6.015625 0.28125 C 4.710938 0.28125 3.71875 -0.0703125 3.03125 -0.78125 C 2.34375 -1.488281 2 -2.5625 2 -4 L 2 -20.3125 L 5.640625 -20.3125 L 5.640625 -4.140625 C 5.640625 -3.253906 6.003906 -2.8125 6.734375 -2.8125 C 6.953125 -2.8125 7.175781 -2.847656 7.40625 -2.921875 L 7.59375 -2.859375 L 7.921875 -0.0625 C 7.722656 0.0390625 7.457031 0.125 7.125 0.1875 C 6.789062 0.25 6.421875 0.28125 6.015625 0.28125 Z M 6.015625 0.28125 "/></g></g></g><g fill="#000000" fill-opacity="1"><g transform="translate(126.288252, 29.010578)"><g><path d="M 6.640625 0.28125 C 5.003906 0.28125 3.796875 -0.160156 3.015625 -1.046875 C 2.242188 -1.941406 1.859375 -3.222656 1.859375 -4.890625 L 1.859375 -14.484375 L 5.5 -14.484375 L 5.5 -5.34375 C 5.5 -4.457031 5.6875 -3.8125 6.0625 -3.40625 C 6.445312 -3 7.039062 -2.796875 7.84375 -2.796875 C 8.851562 -2.796875 9.632812 -3.125 10.1875 -3.78125 C 10.75 -4.445312 11.03125 -5.488281 11.03125 -6.90625 L 11.03125 -14.484375 L 14.671875 -14.484375 L 14.671875 0 L 11.1875 0 L 11.1875 -2.125 L 10.90625 -2.1875 C 10.4375 -1.363281 9.867188 -0.742188 9.203125 -0.328125 C 8.535156 0.078125 7.679688 0.28125 6.640625 0.28125 Z M 6.640625 0.28125 "/></g></g></g><g fill="#000000" fill-opacity="1"><g transform="translate(141.293903, 29.010578)"><g><path d="M 10.125 0.28125 C 8.28125 0.28125 6.90625 -0.410156 6 -1.796875 L 5.734375 -1.75 L 5.734375 0 L 2.09375 0 L 2.09375 -20.3125 L 5.734375 -20.3125 L 5.734375 -12.78125 L 6 -12.734375 C 6.5 -13.421875 7.085938 -13.929688 7.765625 -14.265625 C 8.453125 -14.597656 9.265625 -14.765625 10.203125 -14.765625 C 11.378906 -14.765625 12.40625 -14.488281 13.28125 -13.9375 C 14.15625 -13.382812 14.835938 -12.546875 15.328125 -11.421875 C 15.816406 -10.296875 16.0625 -8.898438 16.0625 -7.234375 C 16.0625 -5.585938 15.804688 -4.203125 15.296875 -3.078125 C 14.796875 -1.953125 14.097656 -1.109375 13.203125 -0.546875 C 12.304688 0.00390625 11.28125 0.28125 10.125 0.28125 Z M 9.03125 -2.8125 C 10.09375 -2.8125 10.90625 -3.164062 11.46875 -3.875 C 12.03125 -4.59375 12.3125 -5.710938 12.3125 -7.234375 C 12.3125 -8.765625 12.03125 -9.882812 11.46875 -10.59375 C 10.90625 -11.3125 10.09375 -11.671875 9.03125 -11.671875 C 8 -11.671875 7.179688 -11.300781 6.578125 -10.5625 C 5.984375 -9.832031 5.6875 -8.722656 5.6875 -7.234375 C 5.6875 -5.742188 5.984375 -4.632812 6.578125 -3.90625 C 7.179688 -3.175781 8 -2.8125 9.03125 -2.8125 Z M 9.03125 -2.8125 "/></g></g></g><g fill="#000000" fill-opacity="1"><g transform="translate(156.890429, 29.010578)"><g><path d="M 3.703125 0.125 C 3.242188 0.125 2.832031 0.03125 2.46875 -0.15625 C 2.113281 -0.351562 1.84375 -0.613281 1.65625 -0.9375 C 1.46875 -1.269531 1.375 -1.648438 1.375 -2.078125 C 1.375 -2.492188 1.46875 -2.867188 1.65625 -3.203125 C 1.84375 -3.535156 2.113281 -3.796875 2.46875 -3.984375 C 2.832031 -4.179688 3.242188 -4.28125 3.703125 -4.28125 C 4.179688 -4.28125 4.597656 -4.1875 4.953125 -4 C 5.304688 -3.8125 5.578125 -3.550781 5.765625 -3.21875 C 5.953125 -2.882812 6.046875 -2.507812 6.046875 -2.09375 C 6.046875 -1.445312 5.832031 -0.914062 5.40625 -0.5 C 4.976562 -0.0820312 4.410156 0.125 3.703125 0.125 Z M 3.703125 0.125 "/></g></g></g></svg>