<svg xmlns="http://www.w3.org/2000/svg" xmlns:xlink="http://www.w3.org/1999/xlink" width="240" zoomAndPan="magnify" viewBox="0 0 180 48" height="64" preserveAspectRatio="xMidYMid meet" version="1.0"><defs><g/></defs><g fill="#1c7042" fill-opacity="1"><g transform="translate(15.663117, 29.681635)"><g><path d="M 10.484375 0.28125 C 8.722656 0.28125 7.164062 -0.0859375 5.8125 -0.828125 C 4.46875 -1.566406 3.414062 -2.671875 2.65625 -4.140625 C 1.894531 -5.617188 1.515625 -7.4375 1.515625 -9.59375 C 1.515625 -11.757812 1.894531 -13.578125 2.65625 -15.046875 C 3.414062 -16.523438 4.46875 -17.628906 5.8125 -18.359375 C 7.164062 -19.097656 8.722656 -19.46875 10.484375 -19.46875 C 12.335938 -19.46875 13.910156 -19.109375 15.203125 -18.390625 C 16.492188 -17.671875 17.414062 -16.570312 17.96875 -15.09375 L 15.1875 -13.390625 L 14.859375 -13.40625 C 14.453125 -14.40625 13.894531 -15.117188 13.1875 -15.546875 C 12.476562 -15.984375 11.578125 -16.203125 10.484375 -16.203125 C 8.890625 -16.203125 7.644531 -15.671875 6.75 -14.609375 C 5.863281 -13.554688 5.421875 -11.882812 5.421875 -9.59375 C 5.421875 -7.3125 5.863281 -5.640625 6.75 -4.578125 C 7.644531 -3.523438 8.890625 -3 10.484375 -3 C 12.984375 -3 14.515625 -4.210938 15.078125 -6.640625 L 15.40625 -6.640625 L 18.203125 -5.1875 C 17.671875 -3.363281 16.769531 -1.992188 15.5 -1.078125 C 14.238281 -0.171875 12.566406 0.28125 10.484375 0.28125 Z M 10.484375 0.28125 "/></g></g></g><g fill="#1c7042" fill-opacity="1"><g transform="translate(32.747285, 29.681635)"><g><path d="M 8.421875 0.28125 C 7.003906 0.28125 5.757812 -0.0078125 4.6875 -0.59375 C 3.613281 -1.175781 2.78125 -2.03125 2.1875 -3.15625 C 1.59375 -4.28125 1.296875 -5.640625 1.296875 -7.234375 C 1.296875 -8.828125 1.59375 -10.1875 2.1875 -11.3125 C 2.78125 -12.445312 3.613281 -13.304688 4.6875 -13.890625 C 5.757812 -14.472656 7.003906 -14.765625 8.421875 -14.765625 C 9.835938 -14.765625 11.082031 -14.472656 12.15625 -13.890625 C 13.226562 -13.304688 14.0625 -12.445312 14.65625 -11.3125 C 15.25 -10.1875 15.546875 -8.828125 15.546875 -7.234375 C 15.546875 -5.640625 15.25 -4.28125 14.65625 -3.15625 C 14.0625 -2.03125 13.226562 -1.175781 12.15625 -0.59375 C 11.082031 -0.0078125 9.835938 0.28125 8.421875 0.28125 Z M 8.421875 -2.8125 C 10.671875 -2.8125 11.796875 -4.285156 11.796875 -7.234375 C 11.796875 -8.765625 11.503906 -9.882812 10.921875 -10.59375 C 10.347656 -11.3125 9.515625 -11.671875 8.421875 -11.671875 C 6.171875 -11.671875 5.046875 -10.191406 5.046875 -7.234375 C 5.046875 -4.285156 6.171875 -2.8125 8.421875 -2.8125 Z M 8.421875 -2.8125 "/></g></g></g><g fill="#1c7042" fill-opacity="1"><g transform="translate(47.835216, 29.681635)"><g><path d="M 7.15625 0.28125 C 6.007812 0.28125 4.992188 0.00390625 4.109375 -0.546875 C 3.234375 -1.109375 2.546875 -1.953125 2.046875 -3.078125 C 1.546875 -4.203125 1.296875 -5.585938 1.296875 -7.234375 C 1.296875 -8.890625 1.550781 -10.28125 2.0625 -11.40625 C 2.582031 -12.53125 3.289062 -13.367188 4.1875 -13.921875 C 5.09375 -14.484375 6.144531 -14.765625 7.34375 -14.765625 C 8.238281 -14.765625 9.015625 -14.609375 9.671875 -14.296875 C 10.335938 -13.984375 10.898438 -13.5 11.359375 -12.84375 L 11.640625 -12.90625 L 11.640625 -20.296875 L 15.265625 -20.296875 L 15.265625 0 L 11.640625 0 L 11.640625 -1.875 L 11.359375 -1.9375 C 10.953125 -1.25 10.398438 -0.707031 9.703125 -0.3125 C 9.003906 0.0820312 8.15625 0.28125 7.15625 0.28125 Z M 8.34375 -2.8125 C 9.363281 -2.8125 10.171875 -3.175781 10.765625 -3.90625 C 11.359375 -4.632812 11.65625 -5.742188 11.65625 -7.234375 C 11.65625 -8.722656 11.359375 -9.832031 10.765625 -10.5625 C 10.171875 -11.300781 9.363281 -11.671875 8.34375 -11.671875 C 7.269531 -11.671875 6.453125 -11.3125 5.890625 -10.59375 C 5.328125 -9.882812 5.046875 -8.765625 5.046875 -7.234375 C 5.046875 -5.710938 5.328125 -4.59375 5.890625 -3.875 C 6.453125 -3.164062 7.269531 -2.8125 8.34375 -2.8125 Z M 8.34375 -2.8125 "/></g></g></g><g fill="#1c7042" fill-opacity="1"><g transform="translate(63.448475, 29.681635)"><g><path d="M 3.90625 -16.21875 C 3.25 -16.21875 2.710938 -16.414062 2.296875 -16.8125 C 1.890625 -17.207031 1.6875 -17.722656 1.6875 -18.359375 C 1.6875 -18.972656 1.890625 -19.476562 2.296875 -19.875 C 2.710938 -20.28125 3.25 -20.484375 3.90625 -20.484375 C 4.34375 -20.484375 4.726562 -20.390625 5.0625 -20.203125 C 5.40625 -20.023438 5.671875 -19.773438 5.859375 -19.453125 C 6.046875 -19.128906 6.140625 -18.765625 6.140625 -18.359375 C 6.140625 -17.941406 6.046875 -17.570312 5.859375 -17.25 C 5.671875 -16.925781 5.40625 -16.671875 5.0625 -16.484375 C 4.726562 -16.304688 4.34375 -16.21875 3.90625 -16.21875 Z M 2.09375 0 L 2.09375 -14.484375 L 5.71875 -14.484375 L 5.71875 0 Z M 2.09375 0 "/></g></g></g><g fill="#1c7042" fill-opacity="1"><g transform="translate(69.500798, 29.681635)"><g><path d="M 2.09375 0 L 2.09375 -14.484375 L 5.578125 -14.484375 L 5.578125 -12.359375 L 5.859375 -12.296875 C 6.753906 -13.941406 8.210938 -14.765625 10.234375 -14.765625 C 11.910156 -14.765625 13.140625 -14.304688 13.921875 -13.390625 C 14.703125 -12.484375 15.09375 -11.160156 15.09375 -9.421875 L 15.09375 0 L 11.46875 0 L 11.46875 -8.96875 C 11.46875 -9.925781 11.273438 -10.617188 10.890625 -11.046875 C 10.503906 -11.472656 9.882812 -11.6875 9.03125 -11.6875 C 7.988281 -11.6875 7.175781 -11.347656 6.59375 -10.671875 C 6.007812 -9.992188 5.71875 -8.9375 5.71875 -7.5 L 5.71875 0 Z M 2.09375 0 "/></g></g></g><g fill="#1c7042" fill-opacity="1"><g transform="translate(84.720056, 29.681635)"><g><path d="M 7.515625 6.140625 C 5.117188 6.140625 3.351562 5.789062 2.21875 5.09375 C 1.082031 4.394531 0.515625 3.421875 0.515625 2.171875 C 0.515625 1.410156 0.753906 0.785156 1.234375 0.296875 C 1.722656 -0.191406 2.421875 -0.519531 3.328125 -0.6875 L 3.328125 -0.953125 C 2.835938 -1.253906 2.484375 -1.585938 2.265625 -1.953125 C 2.054688 -2.316406 1.953125 -2.738281 1.953125 -3.21875 C 1.953125 -4.382812 2.710938 -5.164062 4.234375 -5.5625 L 4.234375 -5.84375 C 3.453125 -6.289062 2.863281 -6.84375 2.46875 -7.5 C 2.070312 -8.164062 1.875 -8.96875 1.875 -9.90625 C 1.875 -10.863281 2.09375 -11.707031 2.53125 -12.4375 C 2.976562 -13.164062 3.628906 -13.734375 4.484375 -14.140625 C 5.335938 -14.554688 6.359375 -14.765625 7.546875 -14.765625 C 8.753906 -14.765625 9.71875 -14.550781 10.4375 -14.125 C 10.882812 -14.769531 11.144531 -15.519531 11.21875 -16.375 L 11.484375 -16.546875 L 14.109375 -15.90625 C 14.023438 -15.207031 13.820312 -14.625 13.5 -14.15625 C 13.175781 -13.6875 12.671875 -13.269531 11.984375 -12.90625 L 11.984375 -12.625 C 12.796875 -11.90625 13.203125 -10.898438 13.203125 -9.609375 C 13.203125 -8.710938 12.976562 -7.910156 12.53125 -7.203125 C 12.09375 -6.492188 11.445312 -5.929688 10.59375 -5.515625 C 9.738281 -5.109375 8.722656 -4.90625 7.546875 -4.90625 L 7 -4.921875 C 6.644531 -4.941406 6.398438 -4.953125 6.265625 -4.953125 C 5.929688 -4.953125 5.671875 -4.859375 5.484375 -4.671875 C 5.296875 -4.492188 5.203125 -4.265625 5.203125 -3.984375 C 5.203125 -3.679688 5.320312 -3.441406 5.5625 -3.265625 C 5.8125 -3.097656 6.171875 -3.007812 6.640625 -3 L 9.890625 -2.875 C 13.085938 -2.78125 14.6875 -1.398438 14.6875 1.265625 C 14.6875 2.203125 14.445312 3.035156 13.96875 3.765625 C 13.5 4.492188 12.726562 5.070312 11.65625 5.5 C 10.59375 5.925781 9.210938 6.140625 7.515625 6.140625 Z M 7.546875 -7.453125 C 8.242188 -7.453125 8.789062 -7.65625 9.1875 -8.0625 C 9.582031 -8.476562 9.78125 -9.066406 9.78125 -9.828125 C 9.78125 -10.597656 9.582031 -11.1875 9.1875 -11.59375 C 8.789062 -12 8.242188 -12.203125 7.546875 -12.203125 C 6.835938 -12.203125 6.289062 -12 5.90625 -11.59375 C 5.519531 -11.1875 5.328125 -10.597656 5.328125 -9.828125 C 5.328125 -9.054688 5.519531 -8.46875 5.90625 -8.0625 C 6.289062 -7.65625 6.835938 -7.453125 7.546875 -7.453125 Z M 7.515625 3.5 C 8.753906 3.5 9.65625 3.320312 10.21875 2.96875 C 10.78125 2.625 11.0625 2.171875 11.0625 1.609375 C 11.0625 1.160156 10.914062 0.828125 10.625 0.609375 C 10.34375 0.390625 9.882812 0.273438 9.25 0.265625 L 6.390625 0.125 C 6.296875 0.125 6.207031 0.117188 6.125 0.109375 C 6.039062 0.109375 5.957031 0.109375 5.875 0.109375 C 5.269531 0.109375 4.804688 0.238281 4.484375 0.5 C 4.160156 0.757812 4 1.125 4 1.59375 C 4 2.207031 4.289062 2.675781 4.875 3 C 5.46875 3.332031 6.347656 3.5 7.515625 3.5 Z M 7.515625 3.5 "/></g></g></g><g fill="#1c7042" fill-opacity="1"><g transform="translate(98.035015, 29.681635)"><g/></g></g><g fill="#1c7042" fill-opacity="1"><g transform="translate(102.629564, 29.681635)"><g><path d="M 10.484375 0.28125 C 8.722656 0.28125 7.164062 -0.0859375 5.8125 -0.828125 C 4.46875 -1.566406 3.414062 -2.671875 2.65625 -4.140625 C 1.894531 -5.617188 1.515625 -7.4375 1.515625 -9.59375 C 1.515625 -11.757812 1.894531 -13.578125 2.65625 -15.046875 C 3.414062 -16.523438 4.46875 -17.628906 5.8125 -18.359375 C 7.164062 -19.097656 8.722656 -19.46875 10.484375 -19.46875 C 12.335938 -19.46875 13.910156 -19.109375 15.203125 -18.390625 C 16.492188 -17.671875 17.414062 -16.570312 17.96875 -15.09375 L 15.1875 -13.390625 L 14.859375 -13.40625 C 14.453125 -14.40625 13.894531 -15.117188 13.1875 -15.546875 C 12.476562 -15.984375 11.578125 -16.203125 10.484375 -16.203125 C 8.890625 -16.203125 7.644531 -15.671875 6.75 -14.609375 C 5.863281 -13.554688 5.421875 -11.882812 5.421875 -9.59375 C 5.421875 -7.3125 5.863281 -5.640625 6.75 -4.578125 C 7.644531 -3.523438 8.890625 -3 10.484375 -3 C 12.984375 -3 14.515625 -4.210938 15.078125 -6.640625 L 15.40625 -6.640625 L 18.203125 -5.1875 C 17.671875 -3.363281 16.769531 -1.992188 15.5 -1.078125 C 14.238281 -0.171875 12.566406 0.28125 10.484375 0.28125 Z M 10.484375 0.28125 "/></g></g></g><g fill="#1c7042" fill-opacity="1"><g transform="translate(119.713729, 29.681635)"><g><path d="M 6.015625 0.28125 C 4.710938 0.28125 3.71875 -0.0703125 3.03125 -0.78125 C 2.34375 -1.488281 2 -2.554688 2 -3.984375 L 2 -20.296875 L 5.640625 -20.296875 L 5.640625 -4.140625 C 5.640625 -3.253906 6.003906 -2.8125 6.734375 -2.8125 C 6.941406 -2.8125 7.164062 -2.847656 7.40625 -2.921875 L 7.59375 -2.859375 L 7.921875 -0.0625 C 7.710938 0.0390625 7.441406 0.125 7.109375 0.1875 C 6.785156 0.25 6.421875 0.28125 6.015625 0.28125 Z M 6.015625 0.28125 "/></g></g></g><g fill="#1c7042" fill-opacity="1"><g transform="translate(126.291378, 29.681635)"><g><path d="M 6.625 0.28125 C 5 0.28125 3.796875 -0.160156 3.015625 -1.046875 C 2.242188 -1.941406 1.859375 -3.222656 1.859375 -4.890625 L 1.859375 -14.484375 L 5.5 -14.484375 L 5.5 -5.34375 C 5.5 -4.457031 5.6875 -3.8125 6.0625 -3.40625 C 6.445312 -3 7.039062 -2.796875 7.84375 -2.796875 C 8.84375 -2.796875 9.625 -3.125 10.1875 -3.78125 C 10.75 -4.445312 11.03125 -5.488281 11.03125 -6.90625 L 11.03125 -14.484375 L 14.671875 -14.484375 L 14.671875 0 L 11.171875 0 L 11.171875 -2.125 L 10.890625 -2.1875 C 10.429688 -1.363281 9.863281 -0.742188 9.1875 -0.328125 C 8.519531 0.078125 7.664062 0.28125 6.625 0.28125 Z M 6.625 0.28125 "/></g></g></g><g fill="#1c7042" fill-opacity="1"><g transform="translate(141.300507, 29.681635)"><g><path d="M 10.125 0.28125 C 8.28125 0.28125 6.90625 -0.410156 6 -1.796875 L 5.71875 -1.75 L 5.71875 0 L 2.09375 0 L 2.09375 -20.296875 L 5.71875 -20.296875 L 5.71875 -12.78125 L 6 -12.71875 C 6.5 -13.414062 7.085938 -13.929688 7.765625 -14.265625 C 8.441406 -14.597656 9.253906 -14.765625 10.203125 -14.765625 C 11.378906 -14.765625 12.40625 -14.488281 13.28125 -13.9375 C 14.15625 -13.382812 14.835938 -12.546875 15.328125 -11.421875 C 15.816406 -10.296875 16.0625 -8.898438 16.0625 -7.234375 C 16.0625 -5.585938 15.804688 -4.203125 15.296875 -3.078125 C 14.785156 -1.953125 14.082031 -1.109375 13.1875 -0.546875 C 12.300781 0.00390625 11.28125 0.28125 10.125 0.28125 Z M 9.015625 -2.8125 C 10.085938 -2.8125 10.898438 -3.164062 11.453125 -3.875 C 12.015625 -4.59375 12.296875 -5.710938 12.296875 -7.234375 C 12.296875 -8.765625 12.015625 -9.882812 11.453125 -10.59375 C 10.898438 -11.3125 10.085938 -11.671875 9.015625 -11.671875 C 7.992188 -11.671875 7.179688 -11.300781 6.578125 -10.5625 C 5.984375 -9.832031 5.6875 -8.722656 5.6875 -7.234375 C 5.6875 -5.742188 5.984375 -4.632812 6.578125 -3.90625 C 7.179688 -3.175781 7.992188 -2.8125 9.015625 -2.8125 Z M 9.015625 -2.8125 "/></g></g></g><g fill="#1c7042" fill-opacity="1"><g transform="translate(156.900632, 29.681635)"><g><path d="M 3.703125 0.125 C 3.234375 0.125 2.820312 0.03125 2.46875 -0.15625 C 2.113281 -0.351562 1.84375 -0.613281 1.65625 -0.9375 C 1.46875 -1.269531 1.375 -1.648438 1.375 -2.078125 C 1.375 -2.492188 1.46875 -2.867188 1.65625 -3.203125 C 1.84375 -3.535156 2.113281 -3.796875 2.46875 -3.984375 C 2.820312 -4.179688 3.234375 -4.28125 3.703125 -4.28125 C 4.171875 -4.28125 4.582031 -4.1875 4.9375 -4 C 5.289062 -3.8125 5.5625 -3.550781 5.75 -3.21875 C 5.945312 -2.882812 6.046875 -2.507812 6.046875 -2.09375 C 6.046875 -1.445312 5.832031 -0.914062 5.40625 -0.5 C 4.976562 -0.0820312 4.410156 0.125 3.703125 0.125 Z M 3.703125 0.125 "/></g></g></g></svg>