<svg xmlns="http://www.w3.org/2000/svg" xmlns:xlink="http://www.w3.org/1999/xlink" width="54" zoomAndPan="magnify" viewBox="0 0 40.5 40.5" height="54" preserveAspectRatio="xMidYMid meet" version="1.0"><defs><g/><clipPath id="d3f1b4596b"><path d="M 0 0 L 40.007812 0 L 40.007812 40.007812 L 0 40.007812 Z M 0 0 " clip-rule="nonzero"/></clipPath></defs><g clip-path="url(#d3f1b4596b)"><path fill="#ffffff" d="M 0 0 L 40.5 0 L 40.5 48 L 0 48 Z M 0 0 " fill-opacity="1" fill-rule="nonzero"/><path fill="#ffffff" d="M 0 0 L 40.5 0 L 40.5 40.5 L 0 40.5 Z M 0 0 " fill-opacity="1" fill-rule="nonzero"/><path fill="#1c7042" d="M 0 0 L 40.5 0 L 40.5 40.5 L 0 40.5 Z M 0 0 " fill-opacity="1" fill-rule="nonzero"/></g><g fill="#ffffff" fill-opacity="1"><g transform="translate(11.088574, 26.737847)"><g><path d="M 9.984375 0.328125 C 8.609375 0.328125 7.394531 0.078125 6.34375 -0.421875 C 5.289062 -0.929688 4.394531 -1.628906 3.65625 -2.515625 C 2.925781 -3.410156 2.375 -4.460938 2 -5.671875 C 1.625 -6.878906 1.4375 -8.179688 1.4375 -9.578125 C 1.4375 -11.191406 1.660156 -12.617188 2.109375 -13.859375 C 2.554688 -15.109375 3.15625 -16.148438 3.90625 -16.984375 C 4.65625 -17.828125 5.53125 -18.460938 6.53125 -18.890625 C 7.53125 -19.316406 8.570312 -19.53125 9.65625 -19.53125 C 10.238281 -19.53125 10.753906 -19.46875 11.203125 -19.34375 C 11.660156 -19.226562 12.050781 -19.078125 12.375 -18.890625 C 12.707031 -18.710938 12.984375 -18.507812 13.203125 -18.28125 C 13.421875 -18.050781 13.585938 -17.828125 13.703125 -17.609375 L 13.875 -17.609375 L 13.875 -19.203125 L 17.0625 -19.203125 L 17.0625 -13.09375 L 13.875 -13.09375 L 13.875 -14.328125 C 13.875 -15.265625 13.566406 -16.015625 12.953125 -16.578125 C 12.335938 -17.148438 11.441406 -17.4375 10.265625 -17.4375 C 9.035156 -17.4375 8.070312 -17.050781 7.375 -16.28125 C 6.675781 -15.519531 6.328125 -14.3125 6.328125 -12.65625 L 6.328125 -7.078125 C 6.328125 -6.210938 6.4375 -5.476562 6.65625 -4.875 C 6.875 -4.269531 7.179688 -3.765625 7.578125 -3.359375 C 7.972656 -2.953125 8.441406 -2.65625 8.984375 -2.46875 C 9.523438 -2.289062 10.117188 -2.203125 10.765625 -2.203125 C 11.929688 -2.203125 12.921875 -2.507812 13.734375 -3.125 C 14.554688 -3.738281 15.175781 -4.566406 15.59375 -5.609375 L 17.171875 -4.703125 C 16.929688 -4.003906 16.585938 -3.347656 16.140625 -2.734375 C 15.703125 -2.117188 15.175781 -1.582031 14.5625 -1.125 C 13.945312 -0.664062 13.253906 -0.304688 12.484375 -0.046875 C 11.722656 0.203125 10.890625 0.328125 9.984375 0.328125 Z M 9.984375 0.328125 "/></g></g></g></svg>